<svg id="Ebene_1" xmlns="http://www.w3.org/2000/svg" xmlns:xlink="http://www.w3.org/1999/xlink" viewBox="0 0 400 400"><style>.st0{clip-path:url(#SVGID_2_);} .st1{clip-path:url(#SVGID_4_);fill:#5564AC;} .st2{clip-path:url(#SVGID_6_);} .st3{clip-path:url(#SVGID_8_);enable-background:new ;} .st4{clip-path:url(#SVGID_10_);} .st5{clip-path:url(#SVGID_12_);} .st6{opacity:0.9;clip-path:url(#SVGID_14_);fill:#FFFFFF;} .st7{clip-path:url(#SVGID_16_);} .st8{opacity:0.9;clip-path:url(#SVGID_18_);fill:#FFFFFF;} .st9{clip-path:url(#SVGID_20_);} .st10{opacity:0.9;clip-path:url(#SVGID_22_);fill:#FFFFFF;} .st11{clip-path:url(#SVGID_24_);} .st12{opacity:0.9;clip-path:url(#SVGID_26_);fill:#FFFFFF;} .st13{clip-path:url(#SVGID_28_);} .st14{opacity:0.9;clip-path:url(#SVGID_30_);fill:#FFFFFF;} .st15{clip-path:url(#SVGID_32_);} .st16{opacity:0.9;clip-path:url(#SVGID_34_);fill:#FFFFFF;} .st17{clip-path:url(#SVGID_36_);} .st18{opacity:0.9;clip-path:url(#SVGID_38_);fill:#FFFFFF;} .st19{clip-path:url(#SVGID_40_);} .st20{opacity:0.9;clip-path:url(#SVGID_42_);fill:#FFFFFF;} .st21{clip-path:url(#SVGID_44_);} .st22{opacity:0.9;clip-path:url(#SVGID_46_);fill:#FFFFFF;} .st23{clip-path:url(#SVGID_48_);} .st24{opacity:0.9;clip-path:url(#SVGID_50_);fill:#FFFFFF;} .st25{clip-path:url(#SVGID_52_);} .st26{opacity:0.9;clip-path:url(#SVGID_54_);fill:#FFFFFF;} .st27{clip-path:url(#SVGID_56_);} .st28{opacity:0.9;clip-path:url(#SVGID_58_);fill:#FFFFFF;} .st29{clip-path:url(#SVGID_60_);} .st30{opacity:0.9;clip-path:url(#SVGID_62_);fill:#FFFFFF;} .st31{clip-path:url(#SVGID_64_);} .st32{opacity:0.9;clip-path:url(#SVGID_66_);fill:#FFFFFF;} .st33{clip-path:url(#SVGID_68_);} .st34{opacity:0.9;clip-path:url(#SVGID_70_);fill:#FFFFFF;} .st35{clip-path:url(#SVGID_72_);} .st36{opacity:0.9;clip-path:url(#SVGID_74_);fill:#FFFFFF;} .st37{clip-path:url(#SVGID_76_);} .st38{opacity:0.9;clip-path:url(#SVGID_78_);fill:#FFFFFF;} .st39{clip-path:url(#SVGID_80_);} .st40{opacity:0.9;clip-path:url(#SVGID_82_);fill:#FFFFFF;} .st41{clip-path:url(#SVGID_84_);} .st42{opacity:0.9;clip-path:url(#SVGID_86_);fill:#FFFFFF;} .st43{clip-path:url(#SVGID_88_);} .st44{opacity:0.9;clip-path:url(#SVGID_90_);fill:#FFFFFF;} .st45{clip-path:url(#SVGID_92_);} .st46{opacity:0.9;clip-path:url(#SVGID_94_);fill:#FFFFFF;} .st47{clip-path:url(#SVGID_96_);} .st48{opacity:0.9;clip-path:url(#SVGID_98_);fill:#FFFFFF;} .st49{clip-path:url(#SVGID_100_);} .st50{opacity:0.9;clip-path:url(#SVGID_102_);fill:#FFFFFF;} .st51{clip-path:url(#SVGID_104_);} .st52{opacity:0.9;clip-path:url(#SVGID_106_);fill:#FFFFFF;} .st53{clip-path:url(#SVGID_108_);} .st54{opacity:0.9;clip-path:url(#SVGID_110_);fill:#FFFFFF;} .st55{clip-path:url(#SVGID_112_);} .st56{opacity:0.9;clip-path:url(#SVGID_114_);fill:#FFFFFF;} .st57{clip-path:url(#SVGID_116_);} .st58{opacity:0.9;clip-path:url(#SVGID_118_);fill:#FFFFFF;} .st59{clip-path:url(#SVGID_120_);} .st60{opacity:0.9;clip-path:url(#SVGID_122_);fill:#FFFFFF;} .st61{clip-path:url(#SVGID_124_);} .st62{opacity:0.9;clip-path:url(#SVGID_126_);fill:#FFFFFF;} .st63{clip-path:url(#SVGID_128_);} .st64{opacity:0.9;clip-path:url(#SVGID_130_);fill:#FFFFFF;} .st65{clip-path:url(#SVGID_132_);} .st66{opacity:0.9;clip-path:url(#SVGID_134_);fill:#FFFFFF;} .st67{clip-path:url(#SVGID_136_);} .st68{opacity:0.9;clip-path:url(#SVGID_138_);fill:#FFFFFF;} .st69{clip-path:url(#SVGID_140_);} .st70{opacity:0.9;clip-path:url(#SVGID_142_);fill:#FFFFFF;} .st71{clip-path:url(#SVGID_144_);} .st72{opacity:0.9;clip-path:url(#SVGID_146_);fill:#FFFFFF;} .st73{clip-path:url(#SVGID_148_);} .st74{opacity:0.9;clip-path:url(#SVGID_150_);fill:#FFFFFF;} .st75{clip-path:url(#SVGID_152_);} .st76{opacity:0.9;clip-path:url(#SVGID_154_);fill:#FFFFFF;} .st77{clip-path:url(#SVGID_156_);} .st78{opacity:0.9;clip-path:url(#SVGID_158_);fill:#FFFFFF;} .st79{clip-path:url(#SVGID_160_);} .st80{opacity:0.9;clip-path:url(#SVGID_162_);fill:#FFFFFF;} .st81{clip-path:url(#SVGID_164_);} .st82{opacity:0.9;clip-path:url(#SVGID_166_);fill:#FFFFFF;} .st83{clip-path:url(#SVGID_168_);} .st84{opacity:0.9;clip-path:url(#SVGID_170_);fill:#FFFFFF;} .st85{clip-path:url(#SVGID_172_);} .st86{opacity:0.9;clip-path:url(#SVGID_174_);fill:#FFFFFF;} .st87{clip-path:url(#SVGID_176_);} .st88{opacity:0.9;clip-path:url(#SVGID_178_);fill:#FFFFFF;} .st89{clip-path:url(#SVGID_180_);} .st90{opacity:0.9;clip-path:url(#SVGID_182_);fill:#FFFFFF;} .st91{clip-path:url(#SVGID_184_);} .st92{opacity:0.9;clip-path:url(#SVGID_186_);fill:#FFFFFF;} .st93{clip-path:url(#SVGID_188_);} .st94{opacity:0.9;clip-path:url(#SVGID_190_);fill:#FFFFFF;} .st95{clip-path:url(#SVGID_192_);} .st96{opacity:0.9;clip-path:url(#SVGID_194_);fill:#FFFFFF;} .st97{clip-path:url(#SVGID_196_);} .st98{opacity:0.9;clip-path:url(#SVGID_198_);fill:#FFFFFF;} .st99{clip-path:url(#SVGID_200_);} .st100{opacity:0.9;clip-path:url(#SVGID_202_);fill:#FFFFFF;} .st101{clip-path:url(#SVGID_204_);} .st102{opacity:0.9;clip-path:url(#SVGID_206_);fill:#FFFFFF;} .st103{clip-path:url(#SVGID_208_);} .st104{opacity:0.9;clip-path:url(#SVGID_210_);fill:#FFFFFF;} .st105{clip-path:url(#SVGID_212_);} .st106{opacity:0.9;clip-path:url(#SVGID_214_);fill:#FFFFFF;} .st107{clip-path:url(#SVGID_216_);} .st108{opacity:0.9;clip-path:url(#SVGID_218_);fill:#FFFFFF;} .st109{clip-path:url(#SVGID_220_);} .st110{opacity:0.9;clip-path:url(#SVGID_222_);fill:#FFFFFF;} .st111{clip-path:url(#SVGID_224_);} .st112{opacity:0.9;clip-path:url(#SVGID_226_);fill:#FFFFFF;} .st113{clip-path:url(#SVGID_228_);} .st114{opacity:0.9;clip-path:url(#SVGID_230_);fill:#FFFFFF;} .st115{clip-path:url(#SVGID_232_);} .st116{opacity:0.9;clip-path:url(#SVGID_234_);fill:#FFFFFF;} .st117{clip-path:url(#SVGID_236_);} .st118{opacity:0.9;clip-path:url(#SVGID_238_);fill:#FFFFFF;} .st119{clip-path:url(#SVGID_240_);} .st120{opacity:0.9;clip-path:url(#SVGID_242_);fill:#FFFFFF;} .st121{clip-path:url(#SVGID_244_);} .st122{opacity:0.9;clip-path:url(#SVGID_246_);fill:#FFFFFF;} .st123{clip-path:url(#SVGID_248_);} .st124{opacity:0.9;clip-path:url(#SVGID_250_);fill:#FFFFFF;} .st125{clip-path:url(#SVGID_252_);} .st126{opacity:0.9;clip-path:url(#SVGID_254_);fill:#FFFFFF;} .st127{clip-path:url(#SVGID_256_);} .st128{opacity:0.9;clip-path:url(#SVGID_258_);fill:#FFFFFF;} .st129{clip-path:url(#SVGID_260_);} .st130{opacity:0.9;clip-path:url(#SVGID_262_);fill:#FFFFFF;} .st131{clip-path:url(#SVGID_264_);} .st132{opacity:0.9;clip-path:url(#SVGID_266_);fill:#FFFFFF;} .st133{clip-path:url(#SVGID_268_);} .st134{opacity:0.9;clip-path:url(#SVGID_270_);fill:#FFFFFF;} .st135{clip-path:url(#SVGID_272_);} .st136{opacity:0.9;clip-path:url(#SVGID_274_);fill:#FFFFFF;} .st137{clip-path:url(#SVGID_276_);} .st138{opacity:0.9;clip-path:url(#SVGID_278_);fill:#FFFFFF;} .st139{clip-path:url(#SVGID_280_);} .st140{opacity:0.9;clip-path:url(#SVGID_282_);fill:#FFFFFF;} .st141{clip-path:url(#SVGID_284_);} .st142{opacity:0.9;clip-path:url(#SVGID_286_);fill:#FFFFFF;} .st143{clip-path:url(#SVGID_288_);} .st144{opacity:0.9;clip-path:url(#SVGID_290_);fill:#FFFFFF;} .st145{clip-path:url(#SVGID_292_);} .st146{opacity:0.9;clip-path:url(#SVGID_294_);fill:#FFFFFF;} .st147{clip-path:url(#SVGID_296_);} .st148{clip-path:url(#SVGID_298_);fill:#FFFFFF;} .st149{clip-path:url(#SVGID_300_);} .st150{opacity:0.9;clip-path:url(#SVGID_302_);fill:#FFFFFF;} .st151{clip-path:url(#SVGID_304_);} .st152{opacity:0.9;clip-path:url(#SVGID_306_);fill:#FFFFFF;} .st153{clip-path:url(#SVGID_308_);} .st154{opacity:0.9;clip-path:url(#SVGID_310_);fill:#FFFFFF;} .st155{clip-path:url(#SVGID_312_);} .st156{opacity:0.9;clip-path:url(#SVGID_314_);fill:#FFFFFF;} .st157{clip-path:url(#SVGID_316_);} .st158{opacity:0.9;clip-path:url(#SVGID_318_);fill:#FFFFFF;} .st159{clip-path:url(#SVGID_320_);} .st160{opacity:0.9;clip-path:url(#SVGID_322_);fill:#FFFFFF;} .st161{clip-path:url(#SVGID_324_);} .st162{opacity:0.9;clip-path:url(#SVGID_326_);fill:#FFFFFF;} .st163{clip-path:url(#SVGID_328_);} .st164{opacity:0.9;clip-path:url(#SVGID_330_);fill:#FFFFFF;} .st165{clip-path:url(#SVGID_332_);} .st166{opacity:0.9;clip-path:url(#SVGID_334_);fill:#FFFFFF;} .st167{clip-path:url(#SVGID_336_);} .st168{opacity:0.9;clip-path:url(#SVGID_338_);fill:#FFFFFF;} .st169{clip-path:url(#SVGID_340_);} .st170{opacity:0.9;clip-path:url(#SVGID_342_);fill:#FFFFFF;} .st171{clip-path:url(#SVGID_344_);} .st172{opacity:0.9;clip-path:url(#SVGID_346_);fill:#FFFFFF;} .st173{clip-path:url(#SVGID_348_);} .st174{opacity:0.9;clip-path:url(#SVGID_350_);fill:#FFFFFF;} .st175{clip-path:url(#SVGID_352_);} .st176{opacity:0.9;clip-path:url(#SVGID_354_);fill:#FFFFFF;} .st177{clip-path:url(#SVGID_356_);} .st178{opacity:0.9;clip-path:url(#SVGID_358_);fill:#FFFFFF;} .st179{clip-path:url(#SVGID_360_);} .st180{opacity:0.9;clip-path:url(#SVGID_362_);fill:#FFFFFF;} .st181{clip-path:url(#SVGID_364_);} .st182{opacity:0.9;clip-path:url(#SVGID_366_);fill:#FFFFFF;} .st183{clip-path:url(#SVGID_368_);} .st184{opacity:0.9;clip-path:url(#SVGID_370_);fill:#FFFFFF;} .st185{clip-path:url(#SVGID_372_);} .st186{opacity:0.9;clip-path:url(#SVGID_374_);fill:#FFFFFF;} .st187{clip-path:url(#SVGID_376_);} .st188{opacity:0.9;clip-path:url(#SVGID_378_);fill:#FFFFFF;} .st189{clip-path:url(#SVGID_380_);} .st190{opacity:0.9;clip-path:url(#SVGID_382_);fill:#FFFFFF;} .st191{clip-path:url(#SVGID_384_);} .st192{opacity:0.9;clip-path:url(#SVGID_386_);fill:#FFFFFF;} .st193{clip-path:url(#SVGID_388_);} .st194{opacity:0.9;clip-path:url(#SVGID_390_);fill:#FFFFFF;} .st195{clip-path:url(#SVGID_392_);} .st196{opacity:0.9;clip-path:url(#SVGID_394_);fill:#FFFFFF;} .st197{clip-path:url(#SVGID_396_);} .st198{clip-path:url(#SVGID_398_);fill:#5564AC;} .st199{clip-path:url(#SVGID_400_);} .st200{clip-path:url(#SVGID_402_);fill:#EB595B;} .st201{clip-path:url(#SVGID_404_);} .st202{clip-path:url(#SVGID_406_);fill:#FFFFFF;}</style><defs><circle id="SVGID_1_" cx="200" cy="200" r="197"/></defs><clipPath id="SVGID_2_"><use xlink:href="#SVGID_1_" overflow="visible"/></clipPath><g class="st0"><defs><path id="SVGID_3_" d="M-456.7-128.3H856.6v853.7H-456.7z"/></defs><clipPath id="SVGID_4_"><use xlink:href="#SVGID_3_" overflow="visible"/></clipPath><path class="st1" d="M-2.5-2.5h404.9v404.9H-2.5z"/></g><defs><circle id="SVGID_5_" cx="200" cy="200" r="197"/></defs><clipPath id="SVGID_6_"><use xlink:href="#SVGID_5_" overflow="visible"/></clipPath><g class="st2"><defs><path id="SVGID_7_" d="M-456.7-128.3H856.6v853.7H-456.7z"/></defs><clipPath id="SVGID_8_"><use xlink:href="#SVGID_7_" overflow="visible"/></clipPath><g class="st3"><defs><path id="SVGID_9_" d="M58.8 36.9h334.9v328.3H58.8z"/></defs><clipPath id="SVGID_10_"><use xlink:href="#SVGID_9_" overflow="visible"/></clipPath><g class="st4"><defs><circle id="SVGID_11_" cx="94.9" cy="68.7" r="7.7"/></defs><clipPath id="SVGID_12_"><use xlink:href="#SVGID_11_" overflow="visible"/></clipPath><g class="st5"><defs><path id="SVGID_13_" d="M3 3h394v394H3z"/></defs><clipPath id="SVGID_14_"><use xlink:href="#SVGID_13_" overflow="visible"/></clipPath><path class="st6" d="M81.8 55.5h26.3v26.3H81.8z"/></g></g><g class="st4"><defs><circle id="SVGID_15_" cx="226.3" cy="94.9" r="9.9"/></defs><clipPath id="SVGID_16_"><use xlink:href="#SVGID_15_" overflow="visible"/></clipPath><g class="st7"><defs><path id="SVGID_17_" d="M3 3h394v394H3z"/></defs><clipPath id="SVGID_18_"><use xlink:href="#SVGID_17_" overflow="visible"/></clipPath><path class="st8" d="M210.9 79.6h30.6v30.6h-30.6z"/></g></g><g class="st4"><defs><circle id="SVGID_19_" cx="252.5" cy="94.9" r="5.5"/></defs><clipPath id="SVGID_20_"><use xlink:href="#SVGID_19_" overflow="visible"/></clipPath><g class="st9"><defs><path id="SVGID_21_" d="M3 3h394v394H3z"/></defs><clipPath id="SVGID_22_"><use xlink:href="#SVGID_21_" overflow="visible"/></clipPath><path class="st10" d="M241.6 84h21.9v21.9h-21.9z"/></g></g><g class="st4"><defs><circle id="SVGID_23_" cx="278.8" cy="94.9" r="9.9"/></defs><clipPath id="SVGID_24_"><use xlink:href="#SVGID_23_" overflow="visible"/></clipPath><g class="st11"><defs><path id="SVGID_25_" d="M3 3h394v394H3z"/></defs><clipPath id="SVGID_26_"><use xlink:href="#SVGID_25_" overflow="visible"/></clipPath><path class="st12" d="M263.5 79.6h30.6v30.6h-30.6z"/></g></g><g class="st4"><defs><circle id="SVGID_27_" cx="305.1" cy="94.9" r="9.9"/></defs><clipPath id="SVGID_28_"><use xlink:href="#SVGID_27_" overflow="visible"/></clipPath><g class="st13"><defs><path id="SVGID_29_" d="M3 3h394v394H3z"/></defs><clipPath id="SVGID_30_"><use xlink:href="#SVGID_29_" overflow="visible"/></clipPath><path class="st14" d="M289.7 79.6h30.6v30.6h-30.6z"/></g></g><g class="st4"><defs><circle id="SVGID_31_" cx="200" cy="121.2" r="9.9"/></defs><clipPath id="SVGID_32_"><use xlink:href="#SVGID_31_" overflow="visible"/></clipPath><g class="st15"><defs><path id="SVGID_33_" d="M3 3h394v394H3z"/></defs><clipPath id="SVGID_34_"><use xlink:href="#SVGID_33_" overflow="visible"/></clipPath><path class="st16" d="M184.7 105.9h30.6v30.6h-30.6z"/></g></g><g class="st4"><defs><circle id="SVGID_35_" cx="226.3" cy="121.2" r="9.9"/></defs><clipPath id="SVGID_36_"><use xlink:href="#SVGID_35_" overflow="visible"/></clipPath><g class="st17"><defs><path id="SVGID_37_" d="M3 3h394v394H3z"/></defs><clipPath id="SVGID_38_"><use xlink:href="#SVGID_37_" overflow="visible"/></clipPath><path class="st18" d="M210.9 105.9h30.6v30.6h-30.6z"/></g></g><g class="st4"><defs><circle id="SVGID_39_" cx="252.5" cy="68.7" r="9.9"/></defs><clipPath id="SVGID_40_"><use xlink:href="#SVGID_39_" overflow="visible"/></clipPath><g class="st19"><defs><path id="SVGID_41_" d="M3 3h394v394H3z"/></defs><clipPath id="SVGID_42_"><use xlink:href="#SVGID_41_" overflow="visible"/></clipPath><path class="st20" d="M237.2 53.3h30.6v30.6h-30.6z"/></g></g><g class="st4"><defs><circle id="SVGID_43_" cx="278.8" cy="42.4" r="5.5"/></defs><clipPath id="SVGID_44_"><use xlink:href="#SVGID_43_" overflow="visible"/></clipPath><g class="st21"><defs><path id="SVGID_45_" d="M3 3h394v394H3z"/></defs><clipPath id="SVGID_46_"><use xlink:href="#SVGID_45_" overflow="visible"/></clipPath><path class="st22" d="M267.9 31.5h21.9v21.9h-21.9z"/></g></g><g class="st4"><defs><circle id="SVGID_47_" cx="278.8" cy="68.7" r="9.9"/></defs><clipPath id="SVGID_48_"><use xlink:href="#SVGID_47_" overflow="visible"/></clipPath><g class="st23"><defs><path id="SVGID_49_" d="M3 3h394v394H3z"/></defs><clipPath id="SVGID_50_"><use xlink:href="#SVGID_49_" overflow="visible"/></clipPath><path class="st24" d="M263.5 53.3h30.6v30.6h-30.6z"/></g></g><g class="st4"><defs><circle id="SVGID_51_" cx="305.1" cy="68.7" r="7.7"/></defs><clipPath id="SVGID_52_"><use xlink:href="#SVGID_51_" overflow="visible"/></clipPath><g class="st25"><defs><path id="SVGID_53_" d="M3 3h394v394H3z"/></defs><clipPath id="SVGID_54_"><use xlink:href="#SVGID_53_" overflow="visible"/></clipPath><path class="st26" d="M291.9 55.5h26.3v26.3h-26.3z"/></g></g><g class="st4"><defs><circle id="SVGID_55_" cx="278.8" cy="121.2" r="9.9"/></defs><clipPath id="SVGID_56_"><use xlink:href="#SVGID_55_" overflow="visible"/></clipPath><g class="st27"><defs><path id="SVGID_57_" d="M3 3h394v394H3z"/></defs><clipPath id="SVGID_58_"><use xlink:href="#SVGID_57_" overflow="visible"/></clipPath><path class="st28" d="M263.5 105.9h30.6v30.6h-30.6z"/></g></g><g class="st4"><defs><circle id="SVGID_59_" cx="305.1" cy="121.2" r="9.9"/></defs><clipPath id="SVGID_60_"><use xlink:href="#SVGID_59_" overflow="visible"/></clipPath><g class="st29"><defs><path id="SVGID_61_" d="M3 3h394v394H3z"/></defs><clipPath id="SVGID_62_"><use xlink:href="#SVGID_61_" overflow="visible"/></clipPath><path class="st30" d="M289.7 105.9h30.6v30.6h-30.6z"/></g></g><g class="st4"><defs><circle id="SVGID_63_" cx="200" cy="147.5" r="9.9"/></defs><clipPath id="SVGID_64_"><use xlink:href="#SVGID_63_" overflow="visible"/></clipPath><g class="st31"><defs><path id="SVGID_65_" d="M3 3h394v394H3z"/></defs><clipPath id="SVGID_66_"><use xlink:href="#SVGID_65_" overflow="visible"/></clipPath><path class="st32" d="M184.7 132.1h30.6v30.6h-30.6z"/></g></g><g class="st4"><defs><circle id="SVGID_67_" cx="226.3" cy="147.5" r="9.9"/></defs><clipPath id="SVGID_68_"><use xlink:href="#SVGID_67_" overflow="visible"/></clipPath><g class="st33"><defs><path id="SVGID_69_" d="M3 3h394v394H3z"/></defs><clipPath id="SVGID_70_"><use xlink:href="#SVGID_69_" overflow="visible"/></clipPath><path class="st34" d="M210.9 132.1h30.6v30.6h-30.6z"/></g></g><g class="st4"><defs><circle id="SVGID_71_" cx="305.1" cy="147.5" r="9.9"/></defs><clipPath id="SVGID_72_"><use xlink:href="#SVGID_71_" overflow="visible"/></clipPath><g class="st35"><defs><path id="SVGID_73_" d="M3 3h394v394H3z"/></defs><clipPath id="SVGID_74_"><use xlink:href="#SVGID_73_" overflow="visible"/></clipPath><path class="st36" d="M289.7 132.1h30.6v30.6h-30.6z"/></g></g><g class="st4"><defs><circle id="SVGID_75_" cx="278.8" cy="147.5" r="7.7"/></defs><clipPath id="SVGID_76_"><use xlink:href="#SVGID_75_" overflow="visible"/></clipPath><g class="st37"><defs><path id="SVGID_77_" d="M3 3h394v394H3z"/></defs><clipPath id="SVGID_78_"><use xlink:href="#SVGID_77_" overflow="visible"/></clipPath><path class="st38" d="M265.7 134.3H292v26.3h-26.3z"/></g></g><g class="st4"><defs><circle id="SVGID_79_" cx="200" cy="173.7" r="5.5"/></defs><clipPath id="SVGID_80_"><use xlink:href="#SVGID_79_" overflow="visible"/></clipPath><g class="st39"><defs><path id="SVGID_81_" d="M3 3h394v394H3z"/></defs><clipPath id="SVGID_82_"><use xlink:href="#SVGID_81_" overflow="visible"/></clipPath><path class="st40" d="M189.1 162.8H211v21.9h-21.9z"/></g></g><g class="st4"><defs><circle id="SVGID_83_" cx="226.3" cy="173.7" r="7.7"/></defs><clipPath id="SVGID_84_"><use xlink:href="#SVGID_83_" overflow="visible"/></clipPath><g class="st41"><defs><path id="SVGID_85_" d="M3 3h394v394H3z"/></defs><clipPath id="SVGID_86_"><use xlink:href="#SVGID_85_" overflow="visible"/></clipPath><path class="st42" d="M213.1 160.6h26.3v26.3h-26.3z"/></g></g><g class="st4"><defs><circle id="SVGID_87_" cx="278.8" cy="173.7" r="9.9"/></defs><clipPath id="SVGID_88_"><use xlink:href="#SVGID_87_" overflow="visible"/></clipPath><g class="st43"><defs><path id="SVGID_89_" d="M3 3h394v394H3z"/></defs><clipPath id="SVGID_90_"><use xlink:href="#SVGID_89_" overflow="visible"/></clipPath><path class="st44" d="M263.5 158.4h30.6V189h-30.6z"/></g></g><g class="st4"><defs><circle id="SVGID_91_" cx="305.1" cy="173.7" r="9.9"/></defs><clipPath id="SVGID_92_"><use xlink:href="#SVGID_91_" overflow="visible"/></clipPath><g class="st45"><defs><path id="SVGID_93_" d="M3 3h394v394H3z"/></defs><clipPath id="SVGID_94_"><use xlink:href="#SVGID_93_" overflow="visible"/></clipPath><path class="st46" d="M289.7 158.4h30.6V189h-30.6z"/></g></g><g class="st4"><defs><circle id="SVGID_95_" cx="173.7" cy="200" r="9.9"/></defs><clipPath id="SVGID_96_"><use xlink:href="#SVGID_95_" overflow="visible"/></clipPath><g class="st47"><defs><path id="SVGID_97_" d="M3 3h394v394H3z"/></defs><clipPath id="SVGID_98_"><use xlink:href="#SVGID_97_" overflow="visible"/></clipPath><path class="st48" d="M158.4 184.7H189v30.6h-30.6z"/></g></g><g class="st4"><defs><circle id="SVGID_99_" cx="200" cy="200" r="9.9"/></defs><clipPath id="SVGID_100_"><use xlink:href="#SVGID_99_" overflow="visible"/></clipPath><g class="st49"><defs><path id="SVGID_101_" d="M3 3h394v394H3z"/></defs><clipPath id="SVGID_102_"><use xlink:href="#SVGID_101_" overflow="visible"/></clipPath><path class="st50" d="M184.7 184.7h30.6v30.6h-30.6z"/></g></g><g class="st4"><defs><circle id="SVGID_103_" cx="226.3" cy="200" r="9.9"/></defs><clipPath id="SVGID_104_"><use xlink:href="#SVGID_103_" overflow="visible"/></clipPath><g class="st51"><defs><path id="SVGID_105_" d="M3 3h394v394H3z"/></defs><clipPath id="SVGID_106_"><use xlink:href="#SVGID_105_" overflow="visible"/></clipPath><path class="st52" d="M210.9 184.7h30.6v30.6h-30.6z"/></g></g><g class="st4"><defs><circle id="SVGID_107_" cx="252.5" cy="200" r="9.9"/></defs><clipPath id="SVGID_108_"><use xlink:href="#SVGID_107_" overflow="visible"/></clipPath><g class="st53"><defs><path id="SVGID_109_" d="M3 3h394v394H3z"/></defs><clipPath id="SVGID_110_"><use xlink:href="#SVGID_109_" overflow="visible"/></clipPath><path class="st54" d="M237.2 184.7h30.6v30.6h-30.6z"/></g></g><g class="st4"><defs><circle id="SVGID_111_" cx="252.5" cy="173.7" r="5.5"/></defs><clipPath id="SVGID_112_"><use xlink:href="#SVGID_111_" overflow="visible"/></clipPath><g class="st55"><defs><path id="SVGID_113_" d="M3 3h394v394H3z"/></defs><clipPath id="SVGID_114_"><use xlink:href="#SVGID_113_" overflow="visible"/></clipPath><path class="st56" d="M241.6 162.8h21.9v21.9h-21.9z"/></g></g><g class="st4"><defs><circle id="SVGID_115_" cx="278.8" cy="200" r="9.9"/></defs><clipPath id="SVGID_116_"><use xlink:href="#SVGID_115_" overflow="visible"/></clipPath><g class="st57"><defs><path id="SVGID_117_" d="M3 3h394v394H3z"/></defs><clipPath id="SVGID_118_"><use xlink:href="#SVGID_117_" overflow="visible"/></clipPath><path class="st58" d="M263.5 184.7h30.6v30.6h-30.6z"/></g></g><g class="st4"><defs><circle id="SVGID_119_" cx="305.1" cy="200" r="9.9"/></defs><clipPath id="SVGID_120_"><use xlink:href="#SVGID_119_" overflow="visible"/></clipPath><g class="st59"><defs><path id="SVGID_121_" d="M3 3h394v394H3z"/></defs><clipPath id="SVGID_122_"><use xlink:href="#SVGID_121_" overflow="visible"/></clipPath><path class="st60" d="M289.7 184.7h30.6v30.6h-30.6z"/></g></g><g class="st4"><defs><circle id="SVGID_123_" cx="173.7" cy="226.3" r="9.9"/></defs><clipPath id="SVGID_124_"><use xlink:href="#SVGID_123_" overflow="visible"/></clipPath><g class="st61"><defs><path id="SVGID_125_" d="M3 3h394v394H3z"/></defs><clipPath id="SVGID_126_"><use xlink:href="#SVGID_125_" overflow="visible"/></clipPath><path class="st62" d="M158.4 210.9H189v30.6h-30.6z"/></g></g><g class="st4"><defs><circle id="SVGID_127_" cx="147.5" cy="226.3" r="9.9"/></defs><clipPath id="SVGID_128_"><use xlink:href="#SVGID_127_" overflow="visible"/></clipPath><g class="st63"><defs><path id="SVGID_129_" d="M3 3h394v394H3z"/></defs><clipPath id="SVGID_130_"><use xlink:href="#SVGID_129_" overflow="visible"/></clipPath><path class="st64" d="M132.1 210.9h30.6v30.6h-30.6z"/></g></g><g class="st4"><defs><circle id="SVGID_131_" cx="121.2" cy="226.3" r="5.5"/></defs><clipPath id="SVGID_132_"><use xlink:href="#SVGID_131_" overflow="visible"/></clipPath><g class="st65"><defs><path id="SVGID_133_" d="M3 3h394v394H3z"/></defs><clipPath id="SVGID_134_"><use xlink:href="#SVGID_133_" overflow="visible"/></clipPath><path class="st66" d="M110.3 215.3h21.9v21.9h-21.9z"/></g></g><g class="st4"><defs><circle id="SVGID_135_" cx="121.2" cy="147.5" r="9.9"/></defs><clipPath id="SVGID_136_"><use xlink:href="#SVGID_135_" overflow="visible"/></clipPath><g class="st67"><defs><path id="SVGID_137_" d="M3 3h394v394H3z"/></defs><clipPath id="SVGID_138_"><use xlink:href="#SVGID_137_" overflow="visible"/></clipPath><path class="st68" d="M105.9 132.1h30.6v30.6h-30.6z"/></g></g><g class="st4"><defs><circle id="SVGID_139_" cx="94.9" cy="147.5" r="9.9"/></defs><clipPath id="SVGID_140_"><use xlink:href="#SVGID_139_" overflow="visible"/></clipPath><g class="st69"><defs><path id="SVGID_141_" d="M3 3h394v394H3z"/></defs><clipPath id="SVGID_142_"><use xlink:href="#SVGID_141_" overflow="visible"/></clipPath><path class="st70" d="M79.6 132.1h30.6v30.6H79.6z"/></g></g><g class="st4"><defs><circle id="SVGID_143_" cx="121.2" cy="121.2" r="5.5"/></defs><clipPath id="SVGID_144_"><use xlink:href="#SVGID_143_" overflow="visible"/></clipPath><g class="st71"><defs><path id="SVGID_145_" d="M3 3h394v394H3z"/></defs><clipPath id="SVGID_146_"><use xlink:href="#SVGID_145_" overflow="visible"/></clipPath><path class="st72" d="M110.3 110.3h21.9v21.9h-21.9z"/></g></g><g class="st4"><defs><circle id="SVGID_147_" cx="121.2" cy="173.7" r="9.9"/></defs><clipPath id="SVGID_148_"><use xlink:href="#SVGID_147_" overflow="visible"/></clipPath><g class="st73"><defs><path id="SVGID_149_" d="M3 3h394v394H3z"/></defs><clipPath id="SVGID_150_"><use xlink:href="#SVGID_149_" overflow="visible"/></clipPath><path class="st74" d="M105.9 158.4h30.6V189h-30.6z"/></g></g><g class="st4"><defs><circle id="SVGID_151_" cx="94.9" cy="173.7" r="7.7"/></defs><clipPath id="SVGID_152_"><use xlink:href="#SVGID_151_" overflow="visible"/></clipPath><g class="st75"><defs><path id="SVGID_153_" d="M3 3h394v394H3z"/></defs><clipPath id="SVGID_154_"><use xlink:href="#SVGID_153_" overflow="visible"/></clipPath><path class="st76" d="M81.8 160.6h26.3v26.3H81.8z"/></g></g><g class="st4"><defs><circle id="SVGID_155_" cx="226.3" cy="226.3" r="9.9"/></defs><clipPath id="SVGID_156_"><use xlink:href="#SVGID_155_" overflow="visible"/></clipPath><g class="st77"><defs><path id="SVGID_157_" d="M3 3h394v394H3z"/></defs><clipPath id="SVGID_158_"><use xlink:href="#SVGID_157_" overflow="visible"/></clipPath><path class="st78" d="M210.9 210.9h30.6v30.6h-30.6z"/></g></g><g class="st4"><defs><circle id="SVGID_159_" cx="252.5" cy="226.3" r="9.9"/></defs><clipPath id="SVGID_160_"><use xlink:href="#SVGID_159_" overflow="visible"/></clipPath><g class="st79"><defs><path id="SVGID_161_" d="M3 3h394v394H3z"/></defs><clipPath id="SVGID_162_"><use xlink:href="#SVGID_161_" overflow="visible"/></clipPath><path class="st80" d="M237.2 210.9h30.6v30.6h-30.6z"/></g></g><g class="st4"><defs><circle id="SVGID_163_" cx="278.8" cy="226.3" r="13.1"/></defs><clipPath id="SVGID_164_"><use xlink:href="#SVGID_163_" overflow="visible"/></clipPath><g class="st81"><defs><path id="SVGID_165_" d="M3 3h394v394H3z"/></defs><clipPath id="SVGID_166_"><use xlink:href="#SVGID_165_" overflow="visible"/></clipPath><path class="st82" d="M260.2 207.7h37.2v37.2h-37.2z"/></g></g><g class="st4"><defs><circle id="SVGID_167_" cx="305.1" cy="226.3" r="9.9"/></defs><clipPath id="SVGID_168_"><use xlink:href="#SVGID_167_" overflow="visible"/></clipPath><g class="st83"><defs><path id="SVGID_169_" d="M3 3h394v394H3z"/></defs><clipPath id="SVGID_170_"><use xlink:href="#SVGID_169_" overflow="visible"/></clipPath><path class="st84" d="M289.7 210.9h30.6v30.6h-30.6z"/></g></g><g class="st4"><defs><circle id="SVGID_171_" cx="173.7" cy="252.5" r="9.9"/></defs><clipPath id="SVGID_172_"><use xlink:href="#SVGID_171_" overflow="visible"/></clipPath><g class="st85"><defs><path id="SVGID_173_" d="M3 3h394v394H3z"/></defs><clipPath id="SVGID_174_"><use xlink:href="#SVGID_173_" overflow="visible"/></clipPath><path class="st86" d="M158.4 237.2H189v30.6h-30.6z"/></g></g><g class="st4"><defs><circle id="SVGID_175_" cx="200" cy="252.5" r="9.9"/></defs><clipPath id="SVGID_176_"><use xlink:href="#SVGID_175_" overflow="visible"/></clipPath><g class="st87"><defs><path id="SVGID_177_" d="M3 3h394v394H3z"/></defs><clipPath id="SVGID_178_"><use xlink:href="#SVGID_177_" overflow="visible"/></clipPath><path class="st88" d="M184.7 237.2h30.6v30.6h-30.6z"/></g></g><g class="st4"><defs><circle id="SVGID_179_" cx="226.3" cy="252.5" r="9.9"/></defs><clipPath id="SVGID_180_"><use xlink:href="#SVGID_179_" overflow="visible"/></clipPath><g class="st89"><defs><path id="SVGID_181_" d="M3 3h394v394H3z"/></defs><clipPath id="SVGID_182_"><use xlink:href="#SVGID_181_" overflow="visible"/></clipPath><path class="st90" d="M210.9 237.2h30.6v30.6h-30.6z"/></g></g><g class="st4"><defs><circle id="SVGID_183_" cx="278.8" cy="252.5" r="19.7"/></defs><clipPath id="SVGID_184_"><use xlink:href="#SVGID_183_" overflow="visible"/></clipPath><g class="st91"><defs><path id="SVGID_185_" d="M3 3h394v394H3z"/></defs><clipPath id="SVGID_186_"><use xlink:href="#SVGID_185_" overflow="visible"/></clipPath><path class="st92" d="M253.6 227.4h50.3v50.3h-50.3z"/></g></g><g class="st4"><defs><circle id="SVGID_187_" cx="305.1" cy="252.5" r="13.1"/></defs><clipPath id="SVGID_188_"><use xlink:href="#SVGID_187_" overflow="visible"/></clipPath><g class="st93"><defs><path id="SVGID_189_" d="M3 3h394v394H3z"/></defs><clipPath id="SVGID_190_"><use xlink:href="#SVGID_189_" overflow="visible"/></clipPath><path class="st94" d="M286.5 233.9h37.2v37.2h-37.2z"/></g></g><g class="st4"><defs><circle id="SVGID_191_" cx="331.3" cy="121.2" r="9.9"/></defs><clipPath id="SVGID_192_"><use xlink:href="#SVGID_191_" overflow="visible"/></clipPath><g class="st95"><defs><path id="SVGID_193_" d="M3 3h394v394H3z"/></defs><clipPath id="SVGID_194_"><use xlink:href="#SVGID_193_" overflow="visible"/></clipPath><path class="st96" d="M316 105.9h30.6v30.6H316z"/></g></g><g class="st4"><defs><circle id="SVGID_195_" cx="331.3" cy="147.5" r="9.9"/></defs><clipPath id="SVGID_196_"><use xlink:href="#SVGID_195_" overflow="visible"/></clipPath><g class="st97"><defs><path id="SVGID_197_" d="M3 3h394v394H3z"/></defs><clipPath id="SVGID_198_"><use xlink:href="#SVGID_197_" overflow="visible"/></clipPath><path class="st98" d="M316 132.1h30.6v30.6H316z"/></g></g><g class="st4"><defs><circle id="SVGID_199_" cx="331.3" cy="173.7" r="9.9"/></defs><clipPath id="SVGID_200_"><use xlink:href="#SVGID_199_" overflow="visible"/></clipPath><g class="st99"><defs><path id="SVGID_201_" d="M3 3h394v394H3z"/></defs><clipPath id="SVGID_202_"><use xlink:href="#SVGID_201_" overflow="visible"/></clipPath><path class="st100" d="M316 158.4h30.6V189H316z"/></g></g><g class="st4"><defs><circle id="SVGID_203_" cx="331.3" cy="200" r="9.9"/></defs><clipPath id="SVGID_204_"><use xlink:href="#SVGID_203_" overflow="visible"/></clipPath><g class="st101"><defs><path id="SVGID_205_" d="M3 3h394v394H3z"/></defs><clipPath id="SVGID_206_"><use xlink:href="#SVGID_205_" overflow="visible"/></clipPath><path class="st102" d="M316 184.7h30.6v30.6H316z"/></g></g><g class="st4"><defs><circle id="SVGID_207_" cx="331.3" cy="226.3" r="9.9"/></defs><clipPath id="SVGID_208_"><use xlink:href="#SVGID_207_" overflow="visible"/></clipPath><g class="st103"><defs><path id="SVGID_209_" d="M3 3h394v394H3z"/></defs><clipPath id="SVGID_210_"><use xlink:href="#SVGID_209_" overflow="visible"/></clipPath><path class="st104" d="M316 210.9h30.6v30.6H316z"/></g></g><g class="st4"><defs><circle id="SVGID_211_" cx="331.3" cy="252.5" r="7.7"/></defs><clipPath id="SVGID_212_"><use xlink:href="#SVGID_211_" overflow="visible"/></clipPath><g class="st105"><defs><path id="SVGID_213_" d="M3 3h394v394H3z"/></defs><clipPath id="SVGID_214_"><use xlink:href="#SVGID_213_" overflow="visible"/></clipPath><path class="st106" d="M318.2 239.4h26.3v26.3h-26.3z"/></g></g><g class="st4"><defs><circle id="SVGID_215_" cx="357.6" cy="121.2" r="9.9"/></defs><clipPath id="SVGID_216_"><use xlink:href="#SVGID_215_" overflow="visible"/></clipPath><g class="st107"><defs><path id="SVGID_217_" d="M3 3h394v394H3z"/></defs><clipPath id="SVGID_218_"><use xlink:href="#SVGID_217_" overflow="visible"/></clipPath><path class="st108" d="M342.3 105.9h30.6v30.6h-30.6z"/></g></g><g class="st4"><defs><circle id="SVGID_219_" cx="331.3" cy="94.9" r="9.9"/></defs><clipPath id="SVGID_220_"><use xlink:href="#SVGID_219_" overflow="visible"/></clipPath><g class="st109"><defs><path id="SVGID_221_" d="M3 3h394v394H3z"/></defs><clipPath id="SVGID_222_"><use xlink:href="#SVGID_221_" overflow="visible"/></clipPath><path class="st110" d="M316 79.6h30.6v30.6H316z"/></g></g><g class="st4"><defs><circle id="SVGID_223_" cx="357.6" cy="94.9" r="9.9"/></defs><clipPath id="SVGID_224_"><use xlink:href="#SVGID_223_" overflow="visible"/></clipPath><g class="st111"><defs><path id="SVGID_225_" d="M3 3h394v394H3z"/></defs><clipPath id="SVGID_226_"><use xlink:href="#SVGID_225_" overflow="visible"/></clipPath><path class="st112" d="M342.3 79.6h30.6v30.6h-30.6z"/></g></g><g class="st4"><defs><circle id="SVGID_227_" cx="331.3" cy="68.7" r="9.9"/></defs><clipPath id="SVGID_228_"><use xlink:href="#SVGID_227_" overflow="visible"/></clipPath><g class="st113"><defs><path id="SVGID_229_" d="M3 3h394v394H3z"/></defs><clipPath id="SVGID_230_"><use xlink:href="#SVGID_229_" overflow="visible"/></clipPath><path class="st114" d="M316 53.3h30.6v30.6H316z"/></g></g><g class="st4"><defs><circle id="SVGID_231_" cx="357.6" cy="68.7" r="9.9"/></defs><clipPath id="SVGID_232_"><use xlink:href="#SVGID_231_" overflow="visible"/></clipPath><g class="st115"><defs><path id="SVGID_233_" d="M3 3h394v394H3z"/></defs><clipPath id="SVGID_234_"><use xlink:href="#SVGID_233_" overflow="visible"/></clipPath><path class="st116" d="M342.3 53.3h30.6v30.6h-30.6z"/></g></g><g class="st4"><defs><circle id="SVGID_235_" cx="357.6" cy="147.5" r="9.9"/></defs><clipPath id="SVGID_236_"><use xlink:href="#SVGID_235_" overflow="visible"/></clipPath><g class="st117"><defs><path id="SVGID_237_" d="M3 3h394v394H3z"/></defs><clipPath id="SVGID_238_"><use xlink:href="#SVGID_237_" overflow="visible"/></clipPath><path class="st118" d="M342.3 132.1h30.6v30.6h-30.6z"/></g></g><g class="st4"><defs><circle id="SVGID_239_" cx="357.6" cy="173.7" r="9.9"/></defs><clipPath id="SVGID_240_"><use xlink:href="#SVGID_239_" overflow="visible"/></clipPath><g class="st119"><defs><path id="SVGID_241_" d="M3 3h394v394H3z"/></defs><clipPath id="SVGID_242_"><use xlink:href="#SVGID_241_" overflow="visible"/></clipPath><path class="st120" d="M342.3 158.4h30.6V189h-30.6z"/></g></g><g class="st4"><defs><circle id="SVGID_243_" cx="357.6" cy="200" r="9.9"/></defs><clipPath id="SVGID_244_"><use xlink:href="#SVGID_243_" overflow="visible"/></clipPath><g class="st121"><defs><path id="SVGID_245_" d="M3 3h394v394H3z"/></defs><clipPath id="SVGID_246_"><use xlink:href="#SVGID_245_" overflow="visible"/></clipPath><path class="st122" d="M342.3 184.7h30.6v30.6h-30.6z"/></g></g><g class="st4"><defs><circle id="SVGID_247_" cx="357.6" cy="226.3" r="9.9"/></defs><clipPath id="SVGID_248_"><use xlink:href="#SVGID_247_" overflow="visible"/></clipPath><g class="st123"><defs><path id="SVGID_249_" d="M3 3h394v394H3z"/></defs><clipPath id="SVGID_250_"><use xlink:href="#SVGID_249_" overflow="visible"/></clipPath><path class="st124" d="M342.3 210.9h30.6v30.6h-30.6z"/></g></g><g class="st4"><defs><circle id="SVGID_251_" cx="357.6" cy="252.5" r="5.5"/></defs><clipPath id="SVGID_252_"><use xlink:href="#SVGID_251_" overflow="visible"/></clipPath><g class="st125"><defs><path id="SVGID_253_" d="M3 3h394v394H3z"/></defs><clipPath id="SVGID_254_"><use xlink:href="#SVGID_253_" overflow="visible"/></clipPath><path class="st126" d="M346.7 241.6h21.9v21.9h-21.9z"/></g></g><g class="st4"><defs><circle id="SVGID_255_" cx="383.9" cy="121.2" r="9.9"/></defs><clipPath id="SVGID_256_"><use xlink:href="#SVGID_255_" overflow="visible"/></clipPath><g class="st127"><defs><path id="SVGID_257_" d="M3 3h394v394H3z"/></defs><clipPath id="SVGID_258_"><use xlink:href="#SVGID_257_" overflow="visible"/></clipPath><path class="st128" d="M368.5 105.9h30.6v30.6h-30.6z"/></g></g><g class="st4"><defs><circle id="SVGID_259_" cx="383.9" cy="147.5" r="9.9"/></defs><clipPath id="SVGID_260_"><use xlink:href="#SVGID_259_" overflow="visible"/></clipPath><g class="st129"><defs><path id="SVGID_261_" d="M3 3h394v394H3z"/></defs><clipPath id="SVGID_262_"><use xlink:href="#SVGID_261_" overflow="visible"/></clipPath><path class="st130" d="M368.5 132.1h30.6v30.6h-30.6z"/></g></g><g class="st4"><defs><circle id="SVGID_263_" cx="383.9" cy="173.7" r="9.9"/></defs><clipPath id="SVGID_264_"><use xlink:href="#SVGID_263_" overflow="visible"/></clipPath><g class="st131"><defs><path id="SVGID_265_" d="M3 3h394v394H3z"/></defs><clipPath id="SVGID_266_"><use xlink:href="#SVGID_265_" overflow="visible"/></clipPath><path class="st132" d="M368.5 158.4h30.6V189h-30.6z"/></g></g><g class="st4"><defs><circle id="SVGID_267_" cx="383.9" cy="200" r="9.9"/></defs><clipPath id="SVGID_268_"><use xlink:href="#SVGID_267_" overflow="visible"/></clipPath><g class="st133"><defs><path id="SVGID_269_" d="M3 3h394v394H3z"/></defs><clipPath id="SVGID_270_"><use xlink:href="#SVGID_269_" overflow="visible"/></clipPath><path class="st134" d="M368.5 184.7h30.6v30.6h-30.6z"/></g></g><g class="st4"><defs><circle id="SVGID_271_" cx="383.9" cy="226.3" r="9.9"/></defs><clipPath id="SVGID_272_"><use xlink:href="#SVGID_271_" overflow="visible"/></clipPath><g class="st135"><defs><path id="SVGID_273_" d="M3 3h394v394H3z"/></defs><clipPath id="SVGID_274_"><use xlink:href="#SVGID_273_" overflow="visible"/></clipPath><path class="st136" d="M368.5 210.9h30.6v30.6h-30.6z"/></g></g><g class="st4"><defs><circle id="SVGID_275_" cx="383.9" cy="252.5" r="9.9"/></defs><clipPath id="SVGID_276_"><use xlink:href="#SVGID_275_" overflow="visible"/></clipPath><g class="st137"><defs><path id="SVGID_277_" d="M3 3h394v394H3z"/></defs><clipPath id="SVGID_278_"><use xlink:href="#SVGID_277_" overflow="visible"/></clipPath><path class="st138" d="M368.5 237.2h30.6v30.6h-30.6z"/></g></g><g class="st4"><defs><circle id="SVGID_279_" cx="173.7" cy="278.8" r="9.9"/></defs><clipPath id="SVGID_280_"><use xlink:href="#SVGID_279_" overflow="visible"/></clipPath><g class="st139"><defs><path id="SVGID_281_" d="M3 3h394v394H3z"/></defs><clipPath id="SVGID_282_"><use xlink:href="#SVGID_281_" overflow="visible"/></clipPath><path class="st140" d="M158.4 263.5H189v30.6h-30.6z"/></g></g><g class="st4"><defs><circle id="SVGID_283_" cx="200" cy="278.8" r="7.7"/></defs><clipPath id="SVGID_284_"><use xlink:href="#SVGID_283_" overflow="visible"/></clipPath><g class="st141"><defs><path id="SVGID_285_" d="M3 3h394v394H3z"/></defs><clipPath id="SVGID_286_"><use xlink:href="#SVGID_285_" overflow="visible"/></clipPath><path class="st142" d="M186.9 265.7h26.3V292h-26.3z"/></g></g><g class="st4"><defs><circle id="SVGID_287_" cx="226.3" cy="278.8" r="13.1"/></defs><clipPath id="SVGID_288_"><use xlink:href="#SVGID_287_" overflow="visible"/></clipPath><g class="st143"><defs><path id="SVGID_289_" d="M3 3h394v394H3z"/></defs><clipPath id="SVGID_290_"><use xlink:href="#SVGID_289_" overflow="visible"/></clipPath><path class="st144" d="M207.7 260.2h37.2v37.2h-37.2z"/></g></g><g class="st4"><defs><circle id="SVGID_291_" cx="252.5" cy="278.8" r="19.7"/></defs><clipPath id="SVGID_292_"><use xlink:href="#SVGID_291_" overflow="visible"/></clipPath><g class="st145"><defs><path id="SVGID_293_" d="M3 3h394v394H3z"/></defs><clipPath id="SVGID_294_"><use xlink:href="#SVGID_293_" overflow="visible"/></clipPath><path class="st146" d="M227.4 253.6h50.3v50.3h-50.3z"/></g></g><g class="st4"><defs><circle id="SVGID_295_" cx="278.8" cy="278.8" r="30.6"/></defs><clipPath id="SVGID_296_"><use xlink:href="#SVGID_295_" overflow="visible"/></clipPath><g class="st147"><defs><path id="SVGID_297_" d="M3 3h394v394H3z"/></defs><clipPath id="SVGID_298_"><use xlink:href="#SVGID_297_" overflow="visible"/></clipPath><path class="st148" d="M242.7 242.7h72.2v72.2h-72.2z"/></g></g><g class="st4"><defs><circle id="SVGID_299_" cx="305.1" cy="278.8" r="19.7"/></defs><clipPath id="SVGID_300_"><use xlink:href="#SVGID_299_" overflow="visible"/></clipPath><g class="st149"><defs><path id="SVGID_301_" d="M3 3h394v394H3z"/></defs><clipPath id="SVGID_302_"><use xlink:href="#SVGID_301_" overflow="visible"/></clipPath><path class="st150" d="M279.9 253.6h50.3v50.3h-50.3z"/></g></g><g class="st4"><defs><circle id="SVGID_303_" cx="173.7" cy="305.1" r="5.5"/></defs><clipPath id="SVGID_304_"><use xlink:href="#SVGID_303_" overflow="visible"/></clipPath><g class="st151"><defs><path id="SVGID_305_" d="M3 3h394v394H3z"/></defs><clipPath id="SVGID_306_"><use xlink:href="#SVGID_305_" overflow="visible"/></clipPath><path class="st152" d="M162.8 294.1h21.9V316h-21.9z"/></g></g><g class="st4"><defs><circle id="SVGID_307_" cx="200" cy="305.1" r="9.9"/></defs><clipPath id="SVGID_308_"><use xlink:href="#SVGID_307_" overflow="visible"/></clipPath><g class="st153"><defs><path id="SVGID_309_" d="M3 3h394v394H3z"/></defs><clipPath id="SVGID_310_"><use xlink:href="#SVGID_309_" overflow="visible"/></clipPath><path class="st154" d="M184.7 289.7h30.6v30.6h-30.6z"/></g></g><g class="st4"><defs><circle id="SVGID_311_" cx="200" cy="331.3" r="7.7"/></defs><clipPath id="SVGID_312_"><use xlink:href="#SVGID_311_" overflow="visible"/></clipPath><g class="st155"><defs><path id="SVGID_313_" d="M3 3h394v394H3z"/></defs><clipPath id="SVGID_314_"><use xlink:href="#SVGID_313_" overflow="visible"/></clipPath><path class="st156" d="M186.9 318.2h26.3v26.3h-26.3z"/></g></g><g class="st4"><defs><circle id="SVGID_315_" cx="200" cy="357.6" r="5.5"/></defs><clipPath id="SVGID_316_"><use xlink:href="#SVGID_315_" overflow="visible"/></clipPath><g class="st157"><defs><path id="SVGID_317_" d="M3 3h394v394H3z"/></defs><clipPath id="SVGID_318_"><use xlink:href="#SVGID_317_" overflow="visible"/></clipPath><path class="st158" d="M189.1 346.7H211v21.9h-21.9z"/></g></g><g class="st4"><defs><circle id="SVGID_319_" cx="173.7" cy="357.6" r="7.7"/></defs><clipPath id="SVGID_320_"><use xlink:href="#SVGID_319_" overflow="visible"/></clipPath><g class="st159"><defs><path id="SVGID_321_" d="M3 3h394v394H3z"/></defs><clipPath id="SVGID_322_"><use xlink:href="#SVGID_321_" overflow="visible"/></clipPath><path class="st160" d="M160.6 344.5h26.3v26.3h-26.3z"/></g></g><g class="st4"><defs><circle id="SVGID_323_" cx="252.5" cy="331.3" r="7.7"/></defs><clipPath id="SVGID_324_"><use xlink:href="#SVGID_323_" overflow="visible"/></clipPath><g class="st161"><defs><path id="SVGID_325_" d="M3 3h394v394H3z"/></defs><clipPath id="SVGID_326_"><use xlink:href="#SVGID_325_" overflow="visible"/></clipPath><path class="st162" d="M239.4 318.2h26.3v26.3h-26.3z"/></g></g><g class="st4"><defs><circle id="SVGID_327_" cx="252.5" cy="305.1" r="13.1"/></defs><clipPath id="SVGID_328_"><use xlink:href="#SVGID_327_" overflow="visible"/></clipPath><g class="st163"><defs><path id="SVGID_329_" d="M3 3h394v394H3z"/></defs><clipPath id="SVGID_330_"><use xlink:href="#SVGID_329_" overflow="visible"/></clipPath><path class="st164" d="M233.9 286.5h37.2v37.2h-37.2z"/></g></g><g class="st4"><defs><circle id="SVGID_331_" cx="278.8" cy="305.1" r="19.7"/></defs><clipPath id="SVGID_332_"><use xlink:href="#SVGID_331_" overflow="visible"/></clipPath><g class="st165"><defs><path id="SVGID_333_" d="M3 3h394v394H3z"/></defs><clipPath id="SVGID_334_"><use xlink:href="#SVGID_333_" overflow="visible"/></clipPath><path class="st166" d="M253.6 279.9h50.3v50.3h-50.3z"/></g></g><g class="st4"><defs><circle id="SVGID_335_" cx="305.1" cy="305.1" r="13.1"/></defs><clipPath id="SVGID_336_"><use xlink:href="#SVGID_335_" overflow="visible"/></clipPath><g class="st167"><defs><path id="SVGID_337_" d="M3 3h394v394H3z"/></defs><clipPath id="SVGID_338_"><use xlink:href="#SVGID_337_" overflow="visible"/></clipPath><path class="st168" d="M286.5 286.5h37.2v37.2h-37.2z"/></g></g><g class="st4"><defs><circle id="SVGID_339_" cx="278.8" cy="331.3" r="13.1"/></defs><clipPath id="SVGID_340_"><use xlink:href="#SVGID_339_" overflow="visible"/></clipPath><g class="st169"><defs><path id="SVGID_341_" d="M3 3h394v394H3z"/></defs><clipPath id="SVGID_342_"><use xlink:href="#SVGID_341_" overflow="visible"/></clipPath><path class="st170" d="M260.2 312.7h37.2v37.2h-37.2z"/></g></g><g class="st4"><defs><circle id="SVGID_343_" cx="278.8" cy="357.6" r="5.5"/></defs><clipPath id="SVGID_344_"><use xlink:href="#SVGID_343_" overflow="visible"/></clipPath><g class="st171"><defs><path id="SVGID_345_" d="M3 3h394v394H3z"/></defs><clipPath id="SVGID_346_"><use xlink:href="#SVGID_345_" overflow="visible"/></clipPath><path class="st172" d="M267.9 346.7h21.9v21.9h-21.9z"/></g></g><g class="st4"><defs><circle id="SVGID_347_" cx="68.7" cy="252.5" r="5.5"/></defs><clipPath id="SVGID_348_"><use xlink:href="#SVGID_347_" overflow="visible"/></clipPath><g class="st173"><defs><path id="SVGID_349_" d="M3 3h394v394H3z"/></defs><clipPath id="SVGID_350_"><use xlink:href="#SVGID_349_" overflow="visible"/></clipPath><path class="st174" d="M57.7 241.6h21.9v21.9H57.7z"/></g></g><g class="st4"><defs><circle id="SVGID_351_" cx="121.2" cy="252.5" r="7.7"/></defs><clipPath id="SVGID_352_"><use xlink:href="#SVGID_351_" overflow="visible"/></clipPath><g class="st175"><defs><path id="SVGID_353_" d="M3 3h394v394H3z"/></defs><clipPath id="SVGID_354_"><use xlink:href="#SVGID_353_" overflow="visible"/></clipPath><path class="st176" d="M108.1 239.4h26.3v26.3h-26.3z"/></g></g><g class="st4"><defs><circle id="SVGID_355_" cx="147.5" cy="252.5" r="9.9"/></defs><clipPath id="SVGID_356_"><use xlink:href="#SVGID_355_" overflow="visible"/></clipPath><g class="st177"><defs><path id="SVGID_357_" d="M3 3h394v394H3z"/></defs><clipPath id="SVGID_358_"><use xlink:href="#SVGID_357_" overflow="visible"/></clipPath><path class="st178" d="M132.1 237.2h30.6v30.6h-30.6z"/></g></g><g class="st4"><defs><circle id="SVGID_359_" cx="68.7" cy="278.8" r="9.9"/></defs><clipPath id="SVGID_360_"><use xlink:href="#SVGID_359_" overflow="visible"/></clipPath><g class="st179"><defs><path id="SVGID_361_" d="M3 3h394v394H3z"/></defs><clipPath id="SVGID_362_"><use xlink:href="#SVGID_361_" overflow="visible"/></clipPath><path class="st180" d="M53.3 263.5h30.6v30.6H53.3z"/></g></g><g class="st4"><defs><circle id="SVGID_363_" cx="94.9" cy="278.8" r="9.9"/></defs><clipPath id="SVGID_364_"><use xlink:href="#SVGID_363_" overflow="visible"/></clipPath><g class="st181"><defs><path id="SVGID_365_" d="M3 3h394v394H3z"/></defs><clipPath id="SVGID_366_"><use xlink:href="#SVGID_365_" overflow="visible"/></clipPath><path class="st182" d="M79.6 263.5h30.6v30.6H79.6z"/></g></g><g class="st4"><defs><circle id="SVGID_367_" cx="121.2" cy="278.8" r="9.9"/></defs><clipPath id="SVGID_368_"><use xlink:href="#SVGID_367_" overflow="visible"/></clipPath><g class="st183"><defs><path id="SVGID_369_" d="M3 3h394v394H3z"/></defs><clipPath id="SVGID_370_"><use xlink:href="#SVGID_369_" overflow="visible"/></clipPath><path class="st184" d="M105.9 263.5h30.6v30.6h-30.6z"/></g></g><g class="st4"><defs><circle id="SVGID_371_" cx="147.5" cy="278.8" r="9.9"/></defs><clipPath id="SVGID_372_"><use xlink:href="#SVGID_371_" overflow="visible"/></clipPath><g class="st185"><defs><path id="SVGID_373_" d="M3 3h394v394H3z"/></defs><clipPath id="SVGID_374_"><use xlink:href="#SVGID_373_" overflow="visible"/></clipPath><path class="st186" d="M132.1 263.5h30.6v30.6h-30.6z"/></g></g><g class="st4"><defs><circle id="SVGID_375_" cx="68.7" cy="305.1" r="7.7"/></defs><clipPath id="SVGID_376_"><use xlink:href="#SVGID_375_" overflow="visible"/></clipPath><g class="st187"><defs><path id="SVGID_377_" d="M3 3h394v394H3z"/></defs><clipPath id="SVGID_378_"><use xlink:href="#SVGID_377_" overflow="visible"/></clipPath><path class="st188" d="M55.5 291.9h26.3v26.3H55.5z"/></g></g><g class="st4"><defs><circle id="SVGID_379_" cx="94.9" cy="305.1" r="9.9"/></defs><clipPath id="SVGID_380_"><use xlink:href="#SVGID_379_" overflow="visible"/></clipPath><g class="st189"><defs><path id="SVGID_381_" d="M3 3h394v394H3z"/></defs><clipPath id="SVGID_382_"><use xlink:href="#SVGID_381_" overflow="visible"/></clipPath><path class="st190" d="M79.6 289.7h30.6v30.6H79.6z"/></g></g><g class="st4"><defs><circle id="SVGID_383_" cx="121.2" cy="305.1" r="5.5"/></defs><clipPath id="SVGID_384_"><use xlink:href="#SVGID_383_" overflow="visible"/></clipPath><g class="st191"><defs><path id="SVGID_385_" d="M3 3h394v394H3z"/></defs><clipPath id="SVGID_386_"><use xlink:href="#SVGID_385_" overflow="visible"/></clipPath><path class="st192" d="M110.3 294.1h21.9V316h-21.9z"/></g></g><g class="st4"><defs><circle id="SVGID_387_" cx="200" cy="226.3" r="9.9"/></defs><clipPath id="SVGID_388_"><use xlink:href="#SVGID_387_" overflow="visible"/></clipPath><g class="st193"><defs><path id="SVGID_389_" d="M3 3h394v394H3z"/></defs><clipPath id="SVGID_390_"><use xlink:href="#SVGID_389_" overflow="visible"/></clipPath><path class="st194" d="M184.7 210.9h30.6v30.6h-30.6z"/></g></g><g class="st4"><defs><circle id="SVGID_391_" cx="252.5" cy="252.5" r="13.1"/></defs><clipPath id="SVGID_392_"><use xlink:href="#SVGID_391_" overflow="visible"/></clipPath><g class="st195"><defs><path id="SVGID_393_" d="M3 3h394v394H3z"/></defs><clipPath id="SVGID_394_"><use xlink:href="#SVGID_393_" overflow="visible"/></clipPath><path class="st196" d="M233.9 233.9h37.2v37.2h-37.2z"/></g></g><g class="st4"><defs><circle id="SVGID_395_" cx="278.8" cy="278.8" r="9.9"/></defs><clipPath id="SVGID_396_"><use xlink:href="#SVGID_395_" overflow="visible"/></clipPath><g class="st197"><defs><path id="SVGID_397_" d="M3 3h394v394H3z"/></defs><clipPath id="SVGID_398_"><use xlink:href="#SVGID_397_" overflow="visible"/></clipPath><path class="st198" d="M263.5 263.5h30.6v30.6h-30.6z"/></g></g></g></g><g><defs><circle id="SVGID_399_" cx="331.3" cy="68.7" r="65.7"/></defs><clipPath id="SVGID_400_"><use xlink:href="#SVGID_399_" overflow="visible"/></clipPath><g class="st199"><defs><path id="SVGID_401_" d="M-456.7-128.3H856.6v853.7H-456.7z"/></defs><clipPath id="SVGID_402_"><use xlink:href="#SVGID_401_" overflow="visible"/></clipPath><path class="st200" d="M260.2-2.5h142.3v142.3H260.2z"/></g></g><g><defs><path id="SVGID_403_" d="M331.3 11.8c-31.4 0-56.9 25.5-56.9 56.9s25.5 56.9 56.9 56.9 56.9-25.5 56.9-56.9-25.5-56.9-56.9-56.9zm-51.1 56.9c0-7.4 1.6-14.5 4.4-20.8l24.4 66.9c-17.1-8.4-28.8-25.9-28.8-46.1zm51.1 51.1c-5 0-9.9-.7-14.5-2.1l15.4-44.6 15.7 43.1c.1.3.2.5.4.7-5.3 1.9-11 2.9-17 2.9zm7.1-75.1c3.1-.2 5.9-.5 5.9-.5 2.8-.3 2.4-4.4-.3-4.2 0 0-8.3.7-13.6.7-5 0-13.5-.7-13.5-.7-2.8-.2-3.1 4.1-.3 4.2 0 0 2.6.3 5.4.5l8 21.8-11.2 33.6L300 44.7c3.1-.2 5.9-.5 5.9-.5 2.8-.3 2.4-4.4-.3-4.2 0 0-8.3.7-13.6.7-1 0-2.1 0-3.3-.1 9.1-13.9 24.9-23.1 42.8-23.1 13.3 0 25.4 5.1 34.6 13.4h-.7c-5 0-8.6 4.4-8.6 9.1 0 4.2 2.4 7.8 5 12 1.9 3.4 4.2 7.8 4.2 14.1 0 4.4-1.7 9.5-3.9 16.5L357 99.7l-18.6-55zm37.8-.6c4 7.3 6.3 15.7 6.3 24.5 0 18.9-10.2 35.4-25.4 44.2l15.6-45.2c2.9-7.3 3.9-13.1 3.9-18.3 0-1.8-.1-3.6-.4-5.2z"/></defs><clipPath id="SVGID_404_"><use xlink:href="#SVGID_403_" overflow="visible"/></clipPath><g class="st201"><defs><path id="SVGID_405_" d="M-456.7-128.3H856.6v853.7H-456.7z"/></defs><clipPath id="SVGID_406_"><use xlink:href="#SVGID_405_" overflow="visible"/></clipPath><path class="st202" d="M269 6.3h124.8v124.8H269z"/></g></g></svg>