<svg xmlns="http://www.w3.org/2000/svg" id="Ebene_1" viewBox="0 0 450 50"><style id="style2"></style><g aria-label="WordCamp Europe 2019" style="line-height:1.25" id="text822" font-weight="400" font-size="40" font-family="Bree Serif" letter-spacing="0" word-spacing="0" fill="#db0577"><path d="M49.248 13.942l-1.32.12q-1.04.08-1.32 1.44l-5.04 21.8h-5.48l-4.2-17.8h-.12l-4.08 17.8h-5.64l-5.52-23.08-2.28-.12v-3.4h9.92v3.24l-1.32.12q-1.24.12-1.24 1.04 0 .16.04.36l3.48 15.44h.16l4.16-18.08h5.16l4.32 18.16h.08l3.4-16.72-2.16-.16v-3.4h9z" style="-inkscape-font-specification:'Bree Serif'" id="path824"/><path d="M57.928 34.382q4.36 0 4.36-7.04 0-3.56-1-5.4-.96-1.84-3.28-1.84-2.28 0-3.36 1.76t-1.08 4.8q0 5.64 2.08 7.08.92.64 2.28.64zm-9.2-7.16q0-2.96.88-5.12.88-2.2 2.36-3.36 2.84-2.16 6.28-2.16 2.4 0 4.04.8 1.68.76 2.6 1.8.96 1 1.6 2.96.68 1.92.68 4.56 0 5.52-2.68 8.36t-6.88 2.84q-4.16 0-6.52-2.68-2.36-2.72-2.36-8z" style="-inkscape-font-specification:'Bree Serif'" id="path826"/><path d="M72.301 32.822v-11.08q0-.64-.24-.88-.2-.28-.76-.32l-1.68-.12v-3.24h6.76v3q.72-1.56 2.24-2.56 1.52-1.04 3.48-1.04 2 0 3.8.88v5.96l-3.72.28v-1.84q0-.8-.4-1-.44-.2-1.08-.2-1.6 0-2.64 1.16-1 1.12-1 2.88v9.28l3.48.16v3.16h-10.72v-3.04l1.32-.12q.6-.08.88-.32.28-.28.28-1z" style="-inkscape-font-specification:'Bree Serif'" id="path828"/><path d="M98.377 16.582q1.72 0 3.28.48v-4.04q0-.88-1.04-.96l-1.72-.12v-3.16h7.44v24.32q.04.92 1 .92l1.4.08v3.2h-6.48v-2.36l-.12-.04q-1.8 2.92-5.44 2.92-4.56 0-6.4-3.04-1.68-2.76-1.68-6.76 0-5.2 2.56-8.32 2.6-3.12 7.2-3.12zm3.28 14.48v-10.36q-1.44-.64-3.04-.64-2.64 0-3.88 2.12-1.2 2.12-1.2 5.4 0 6.72 4.32 6.72 1.64 0 2.72-.92 1.08-.96 1.08-2.32z" style="-inkscape-font-specification:'Bree Serif'" id="path830"/><path d="M127.191 14.942q-.44-.76-3.28-.76-3.72 0-5.64 2.52-1.92 2.52-1.92 7.28 0 9.88 7.4 9.88h1.04q.96 0 1.8-.24.84-.28 1-.56.16-.28.16-.88v-3.2l4.08.28v6.92q-3.12 1.64-7.92 1.64-6.12 0-9.36-3.44-3.2-3.44-3.2-10.24 0-3.76 1.08-6.56t2.92-4.36q3.6-3 8.56-3 4 0 7.52 1.64v6.8l-4.08.28v-3.12q0-.6-.16-.88z" style="-inkscape-font-specification:'Bree Serif'" id="path832"/><path d="M153.094 17.982v14.88q0 .64.2.88.24.24.8.28l1.28.08v3.2h-6.36v-2.32l-.12-.04q-2 2.88-5.48 2.88-4.08 0-6.04-2.6t-1.96-7.12q0-5.44 2.64-8.48t7.92-3.04q3.4 0 7.12 1.4zm-4.64 12.96v-10.36q-1.12-.52-3.08-.52-2.68 0-3.88 2.16-1.2 2.16-1.2 5.72 0 6.48 4.16 6.48 1.76 0 2.88-1.04 1.12-1.08 1.12-2.44z" style="-inkscape-font-specification:'Bree Serif'" id="path834"/><path d="M157.55 20.422v-3.24h6.76v2.6q2.24-3.2 6.12-3.2 3.92 0 5.28 3.2 2.24-3.2 6.08-3.2 2.88 0 4.44 1.76 1.56 1.72 1.56 5.2v10.44l2.28.12v3.2h-9.52v-3.04l1.32-.12q.6-.08.84-.32.28-.28.32-.96v-8.28q0-2.2-.52-3.24-.48-1.08-2.32-1.08-1.84 0-2.84 1.12-.96 1.12-.96 3v9.6l2.2.12v3.2h-9.44v-3.04l1.32-.12q.6-.08.88-.32.28-.28.28-1v-8.24q0-2.2-.52-3.24-.48-1.08-2.36-1.08-1.84 0-2.8 1.16-.96 1.16-.96 2.88v9.68l2.16.12v3.2h-9.44v-3.04l1.32-.12q.6-.08.88-.32.28-.28.28-1h.04v-11.04q0-.68-.24-.92-.2-.28-.76-.32z" style="-inkscape-font-specification:'Bree Serif'" id="path836"/><path d="M194.64 41.102v-19.36q0-.68-.24-.92-.2-.28-.76-.28l-1.68-.12v-3.24h6.76v2.6q.64-1.2 2.32-2.2 1.68-1 4-1 7.24 0 7.24 10.16 0 5.4-2.36 8.28-2.36 2.88-6.4 2.88-2.4 0-4.28-1.16v5.52l3.24.16v3.16h-10.32v-3.04l1.32-.12q.6-.08.88-.36.28-.24.28-.96zm12.68-13.96q0-6.68-4.04-6.68-1.68 0-2.88 1.04-1.16 1-1.16 2.4v9.2q1.52 1 3.68 1 2.2 0 3.28-2 1.12-2 1.12-4.96z" style="-inkscape-font-specification:'Bree Serif'" id="path838"/><path d="M242.143 37.302h-19v-3.24l1.32-.12q1.16-.12 1.16-1.12v-18.6l-2.28-.12v-3.4h18.32v6.64l-4.08.28v-1.6q0-.68-.2-.96-.2-.28-.96-.28h-5.92v6.84h9.24v4.08h-9.24v7.48h6.44q.72 0 .92-.28.2-.32.2-1v-2l4.08.28z" style="-inkscape-font-specification:'Bree Serif'" id="path840"/><path d="M266.256 34.142v3.16h-6.48v-2.6q-2.2 3.12-6.48 3.12-6.2 0-6.2-6.92v-9.24q0-1.08-1-1.12l-1.28-.08v-3.28h7.04v12.68q0 2.12.6 3.2t2.48 1.08q1.88 0 3-1.16 1.16-1.16 1.16-2.8v-8.44q0-.64-.24-.88-.2-.28-.76-.32l-1.28-.08v-3.28h7.04v15.68q0 .64.2.88.2.2.8.28z" style="-inkscape-font-specification:'Bree Serif'" id="path842"/><path d="M271.207 32.822v-11.08q0-.64-.24-.88-.2-.28-.76-.32l-1.68-.12v-3.24h6.76v3q.72-1.56 2.24-2.56 1.52-1.04 3.48-1.04 2 0 3.8.88v5.96l-3.72.28v-1.84q0-.8-.4-1-.44-.2-1.08-.2-1.6 0-2.64 1.16-1 1.12-1 2.88v9.28l3.48.16v3.16h-10.72v-3.04l1.32-.12q.6-.08.88-.32.28-.28.28-1z" style="-inkscape-font-specification:'Bree Serif'" id="path844"/><path d="M295.662 34.382q4.36 0 4.36-7.04 0-3.56-1-5.4-.96-1.84-3.28-1.84-2.28 0-3.36 1.76t-1.08 4.8q0 5.64 2.08 7.08.92.64 2.28.64zm-9.2-7.16q0-2.96.88-5.12.88-2.2 2.36-3.36 2.84-2.16 6.28-2.16 2.4 0 4.04.8 1.68.76 2.6 1.8.96 1 1.6 2.96.68 1.92.68 4.56 0 5.52-2.68 8.36t-6.88 2.84q-4.16 0-6.52-2.68-2.36-2.72-2.36-8z" style="-inkscape-font-specification:'Bree Serif'" id="path846"/><path d="M309.796 41.102v-19.36q0-.68-.24-.92-.2-.28-.76-.28l-1.68-.12v-3.24h6.76v2.6q.64-1.2 2.32-2.2 1.68-1 4-1 7.24 0 7.24 10.16 0 5.4-2.36 8.28-2.36 2.88-6.4 2.88-2.4 0-4.28-1.16v5.52l3.24.16v3.16h-10.32v-3.04l1.32-.12q.6-.08.88-.36.28-.24.28-.96zm12.68-13.96q0-6.68-4.04-6.68-1.68 0-2.88 1.04-1.16 1-1.16 2.4v9.2q1.52 1 3.68 1 2.2 0 3.28-2 1.12-2 1.12-4.96z" style="-inkscape-font-specification:'Bree Serif'" id="path848"/><path d="M340.33 16.582q3 0 4.76 1.48 1.76 1.44 1.76 4.08 0 1.76-.76 3.12-.76 1.32-1.88 2.08-1.12.76-2.72 1.24-2.68.8-6.04.8.12 2.12 1.32 3.44 1.2 1.28 3.68 1.28 2.48 0 4.96-1.76l1.52 3.24q-.8.72-2.72 1.48-1.88.76-4.32.76-4.88 0-7.16-2.68-2.28-2.72-2.28-7.44 0-4.72 2.6-7.92t7.28-3.2zm-1.84 9.16q1.48-.28 2.72-1.16 1.24-.92 1.24-2.16 0-2.44-2.4-2.44-2.24 0-3.44 1.8-1.2 1.76-1.32 4.24 1.76-.04 3.2-.28z" style="-inkscape-font-specification:'Bree Serif'" id="path850"/><path d="M358.674 37.302v-3.08l7.96-10.04q1.24-1.6 1.64-2.12.4-.56.76-1.52.4-1 .4-2.36 0-1.4-.96-2.28-.92-.88-2.4-.88-1.44 0-2.2.24-.72.24-.88.56-.12.28-.12.92v2.84l-4.08-.28v-6.4q3.76-1.88 7.72-1.88t5.96 1.96q2 1.92 2 5.28 0 3.36-3.4 7.48l-6.44 7.6h10v3.96z" style="-inkscape-font-specification:'Bree Serif'" id="path852"/><path d="M387.74 11.022q9.08 0 9.08 13.16 0 7-2.36 10.28-2.36 3.24-7 3.24-4.64 0-6.92-3.2-2.28-3.24-2.28-10.04 0-6.8 2.52-10.12 2.52-3.32 6.96-3.32zm-3.52 20.8q1.16 2.04 3.32 2.04t3.32-2.12q1.2-2.12 1.2-7.36 0-5.28-1.16-7.36-1.12-2.08-3.32-2.08-2.2 0-3.36 2.24-1.12 2.2-1.12 7.4 0 5.16 1.12 7.24z" style="-inkscape-font-specification:'Bree Serif'" id="path854"/><path d="M406.467 32.462v-15.72l-4.68 2.4-1.76-3.08 7.28-4.52h3.92v22.16l4.16.2v3.4h-13.92v-3.28l3.84-.24q.6-.04.88-.32t.28-1z" style="-inkscape-font-specification:'Bree Serif'" id="path856"/><path d="M421.952 37.782l-.96-3.72q4.6-.52 7-2.44 2.4-1.92 2.84-5.28-2.32 1.52-5.56 1.52-3.24 0-5.08-2.08-1.8-2.08-1.8-5.88t2.28-6.32q2.28-2.56 6.64-2.56 4.36 0 6.4 3.12t2.04 8.36q0 14.04-13.8 15.28zm5.08-23.04q-1.8 0-2.88 1.36-1.08 1.36-1.08 3.64 0 2.28.92 3.48.92 1.16 2.28 1.16 1.4 0 2.72-.44 1.36-.48 2.08-1.04v-.72q0-7.44-4.04-7.44z" style="-inkscape-font-specification:'Bree Serif'" id="path858"/></g></svg>