<svg id="Ebene_1" xmlns="http://www.w3.org/2000/svg" viewBox="0 0 450 50"><style>.st0{fill:#EB585A;}</style><path class="st0" d="M42.4 10.3c-1 2.5-2 5.2-3 7.9s-2.1 5.4-3.1 8c-1 2.7-2 5.2-3 7.7-.9 2.5-1.8 4.7-2.5 6.7l-6.6-16.2c-.1-.2-.2-.4-.2-.5 0-.1-.1-.2-.1-.5 0 .1 0 .2-.1.3 0 .1 0 .2-.1.3 0 .1-.1.2-.1.3-1 2.1-1.9 4.2-2.8 6.2-.4.9-.8 1.7-1.2 2.7l-1.2 2.7s-.8 1.8-1.2 2.6c-.4.8-.7 1.6-1 2.2-1.9-5.1-3.9-10.2-5.8-15.2S6.5 15.4 4.6 10.3h5.6c1.2 3.4 2.4 6.6 3.5 9.6s2 5.6 2.6 8c.1.2.1.5.2.7.1.3.1.5.2.7 0-.2.1-.4.2-.7.1-.3.2-.5.3-.7 0-.1.1-.4.3-.7.2-.4.3-.8.6-1.3.2-.5.5-1 .7-1.6.3-.6.5-1.2.8-1.7.6-1.4 1.3-2.9 2.1-4.5-.4-1.1-.7-2.2-1-3.2-.3-.9-.6-1.7-.9-2.6-.3-.9-.5-1.5-.6-2h4.7c1.1 3 2.2 5.7 3.1 8.1.4 1 .8 2.1 1.2 3.1.4 1 .8 2 1.1 2.8.3.9.6 1.6.8 2.2.2.6.4 1 .5 1.2.1.2.2.5.2.7 0 .2.1.5.1.7.1-.2.1-.5.1-.7s.1-.5.1-.7c.3-1.2.6-2.5 1.1-3.9.5-1.4 1-2.8 1.5-4.3.6-1.5 1.2-3 1.8-4.6l1.8-4.8h5.1zM40.1 24.8c0-2 .4-3.9 1.2-5.8.8-1.8 1.9-3.4 3.2-4.8 1.3-1.4 2.9-2.4 4.7-3.2 1.8-.8 3.7-1.2 5.8-1.2 2 0 3.9.4 5.8 1.2 1.8.8 3.4 1.9 4.8 3.2 1.4 1.4 2.4 2.9 3.2 4.8.8 1.8 1.2 3.7 1.2 5.8 0 2.1-.4 4-1.2 5.8-.8 1.8-1.9 3.4-3.2 4.7-1.4 1.3-2.9 2.4-4.8 3.2-1.8.8-3.7 1.2-5.8 1.2-2.1 0-4-.4-5.8-1.2s-3.4-1.8-4.7-3.2c-1.3-1.3-2.4-2.9-3.2-4.7-.8-1.8-1.2-3.7-1.2-5.8zm4.9 0c0 1.4.3 2.7.8 4S47 31.1 48 32c.9.9 2 1.6 3.2 2.2 1.2.5 2.5.8 3.9.8s2.6-.3 3.9-.8c1.2-.5 2.3-1.3 3.2-2.2.9-.9 1.6-2 2.1-3.2s.8-2.6.8-4-.3-2.7-.8-4c-.5-1.2-1.3-2.3-2.2-3.3-.9-.9-2-1.7-3.2-2.2-1.2-.5-2.5-.8-3.9-.8s-2.7.3-3.9.8c-1.2.5-2.3 1.3-3.2 2.2s-1.6 2-2.1 3.3-.8 2.6-.8 4zM72 39.3V10.2h8.2c1.6 0 3.1.2 4.4.6 1.3.4 2.4 1 3.4 1.8.9.8 1.6 1.8 2.1 3s.8 2.5.8 4c0 .8-.1 1.6-.2 2.4-.2.8-.4 1.6-.8 2.3-.3.7-.8 1.4-1.4 2.1s-1.2 1.2-2 1.6c.6.9 1.2 1.8 1.7 2.7.6.9 1.1 1.8 1.7 2.7.6.9 1.2 1.8 1.8 2.8.6 1 1.3 2 2 3.1h-5.9c-1.2-1.9-2.3-3.6-3.4-5.3-1.1-1.7-2.1-3.2-3.1-4.7H76.9v10H72zm4.9-14.6h3.9c1 0 1.9-.2 2.5-.5.7-.3 1.2-.8 1.6-1.3.4-.5.7-1 .8-1.6.2-.6.2-1.1.2-1.6s-.1-1-.2-1.5c-.1-.6-.4-1.1-.8-1.6s-.9-.9-1.6-1.3c-.7-.3-1.5-.5-2.6-.5h-4v9.9zM94.5 10.2h7.6c2.9 0 5.4.4 7.5 1.3 2 .9 3.7 2 5 3.5 1.3 1.4 2.2 3 2.8 4.8.6 1.8.9 3.6.9 5.4 0 2.2-.4 4.2-1.2 5.9-.8 1.7-1.8 3.2-3.2 4.5-1.3 1.2-2.9 2.2-4.7 2.8-1.8.7-3.6 1-5.6 1h-9V10.2zm8.2 24.5c1.5 0 2.9-.2 4.2-.6 1.3-.4 2.4-1.1 3.3-1.9.9-.8 1.7-1.9 2.2-3.1.5-1.2.8-2.6.8-4.2 0-1.8-.3-3.4-.9-4.6-.6-1.3-1.4-2.3-2.4-3.1-1-.8-2-1.4-3.2-1.7-1.2-.4-2.3-.5-3.4-.5h-3.9v19.8h3.3zM143.5 37.2c-.3.2-.8.5-1.3.8-.6.3-1.3.6-2 .8-.8.3-1.7.5-2.7.6-1 .2-2 .3-3.2.3-2.3 0-4.3-.4-6.2-1.2-1.8-.8-3.3-1.8-4.6-3.2-1.3-1.3-2.2-2.9-2.9-4.7-.7-1.8-1-3.7-1-5.6 0-2.2.4-4.2 1.2-6.1.8-1.9 1.9-3.5 3.3-4.8 1.4-1.3 3-2.4 4.8-3.1 1.8-.7 3.8-1.1 5.9-1.1.8 0 1.6.1 2.4.2.8.1 1.6.3 2.3.5.7.2 1.4.4 1.9.6.5.2.9.5 1.2.8-.2.4-.4.7-.6.9-.1.2-.3.5-.4.7-.1.3-.3.5-.5.9-.2.3-.4.8-.7 1.3-.3-.2-.7-.4-1.2-.6-.5-.2-.9-.3-1.4-.4-.5-.1-1-.2-1.5-.2-.5-.1-1-.1-1.4-.1-1.5 0-2.9.3-4.1.8-1.3.6-2.4 1.3-3.3 2.2-.9.9-1.6 2-2.2 3.2-.5 1.2-.8 2.5-.8 3.8 0 1.3.2 2.5.7 3.7.5 1.2 1.2 2.3 2.1 3.2.9.9 2 1.7 3.2 2.3 1.2.6 2.6.9 4.1.9.9 0 1.7-.1 2.5-.3.8-.2 1.5-.4 2.1-.6.6-.2 1.1-.4 1.5-.6.4-.2.6-.4.6-.4l2.2 4.5z"/><path class="st0" d="M162.4 39.3c-.1-.2-.2-.5-.4-1s-.4-1.1-.7-1.8c-.3-.7-.6-1.5-1-2.3-.3-.8-.7-1.7-1.1-2.6h-10l-3.2 7.7h-4.8c.1-.2.4-.8.8-1.8.4-.9.9-2.1 1.5-3.5s1.3-3 2-4.7c.7-1.7 1.5-3.5 2.3-5.3.8-1.8 1.5-3.5 2.3-5.3s1.4-3.3 2-4.7c.6-1.4 1.1-2.6 1.5-3.5.4-.9.7-1.5.8-1.8.1.2.4.8.8 1.8.4.9.9 2.1 1.5 3.5s1.3 3 2 4.7 1.5 3.5 2.3 5.3c.8 1.8 1.5 3.5 2.3 5.3.7 1.7 1.4 3.3 2 4.7.6 1.4 1.1 2.6 1.5 3.5.4.9.7 1.5.8 1.8h-5.2zm-11.6-11.8h6.6l-2.9-7s-.1-.2-.2-.5-.2-.6-.2-.9c-.1.3-.1.6-.2.9s-.2.5-.2.5l-2.9 7zM168.7 8.9c.1.2.4.6.9 1.3.5.7 1 1.5 1.7 2.4.7.9 1.4 2 2.3 3.1.8 1.1 1.7 2.3 2.6 3.5.9 1.2 1.7 2.3 2.5 3.5.8 1.1 1.6 2.2 2.2 3.1.7.9 1.2 1.7 1.7 2.3.5.6.8 1 .9 1.2.1-.1.3-.4.7-1 .4-.6 1-1.4 1.6-2.3.7-.9 1.4-1.9 2.2-3.1.8-1.2 1.7-2.3 2.6-3.5.9-1.2 1.7-2.4 2.6-3.6.8-1.2 1.6-2.2 2.3-3.2.7-1 1.3-1.8 1.8-2.4.5-.7.8-1.1.9-1.3v30.4H193V24.5c0-.2 0-.4.1-.7.1-.2.1-.4.1-.4l-9.6 13.9c-.1-.2-.5-.6-1-1.3-.5-.7-1.1-1.6-1.9-2.6-.7-1-1.5-2-2.3-3.2s-1.6-2.2-2.3-3.2c-.7-1-1.3-1.8-1.8-2.5s-.8-1.1-.8-1.2c0 .1 0 .2.1.4s.1.5.1.7v14.9h-4.9V8.9zM201.1 39.3V10.2h8.2c1.6 0 3.1.2 4.4.6 1.3.4 2.4 1 3.4 1.8.9.8 1.6 1.8 2.1 3s.8 2.5.8 4c0 1.2-.2 2.3-.5 3.5-.3 1.2-.9 2.2-1.7 3.1-.8.9-1.8 1.7-3.1 2.2-1.3.6-2.8.9-4.6.9H206v10h-4.9zm4.9-14.6h3.9c1 0 1.9-.2 2.5-.5.7-.3 1.2-.8 1.6-1.3.4-.5.7-1.1.8-1.6.2-.6.2-1.1.2-1.5 0-.4-.1-.9-.2-1.5s-.4-1.1-.8-1.6-.9-.9-1.6-1.3c-.7-.3-1.5-.5-2.6-.5h-4v9.8zM228.9 39.3V10.2h19.4v4.4h-14.5v7.8h12.9V27h-12.9v7.8h15v4.6h-19.9zM262.6 39.7c-1.6 0-3-.3-4.4-.8-1.4-.5-2.6-1.2-3.6-2.2-1-.9-1.8-2.1-2.4-3.4-.6-1.3-.9-2.8-.9-4.4V10.2h4.9v18.6c0 .9.2 1.7.5 2.4s.8 1.4 1.4 2c.6.6 1.2 1 2 1.3.8.3 1.6.5 2.5.5.9 0 1.8-.2 2.5-.5.8-.3 1.5-.8 2.1-1.3.6-.6 1-1.2 1.4-2 .3-.7.5-1.5.5-2.4V10.2h4.9V29c0 1.6-.3 3.1-.9 4.4-.6 1.3-1.4 2.4-2.4 3.4-1 .9-2.2 1.7-3.6 2.2-1.4.4-2.9.7-4.5.7zM276.7 39.3V10.2h8.2c1.6 0 3.1.2 4.4.6 1.3.4 2.4 1 3.4 1.8.9.8 1.6 1.8 2.1 3s.8 2.5.8 4c0 .8-.1 1.6-.2 2.4-.2.8-.4 1.6-.8 2.3-.3.7-.8 1.4-1.4 2.1s-1.2 1.2-2 1.6c.6.9 1.2 1.8 1.7 2.7.6.9 1.1 1.8 1.7 2.7.6.9 1.2 1.8 1.8 2.8.6 1 1.3 2 2 3.1h-5.9c-1.2-1.9-2.3-3.6-3.4-5.3-1.1-1.7-2.1-3.2-3.1-4.7h-4.5v10h-4.8zm4.9-14.6h3.9c1 0 1.9-.2 2.5-.5.7-.3 1.2-.8 1.6-1.3.4-.5.7-1 .8-1.6.2-.6.2-1.1.2-1.6s-.1-1-.2-1.5c-.1-.6-.4-1.1-.8-1.6s-.9-.9-1.6-1.3c-.7-.3-1.5-.5-2.6-.5h-4v9.9zM296.8 24.8c0-2 .4-3.9 1.2-5.8.8-1.8 1.9-3.4 3.2-4.8 1.3-1.4 2.9-2.4 4.7-3.2 1.8-.8 3.7-1.2 5.8-1.2 2 0 3.9.4 5.8 1.2 1.8.8 3.4 1.9 4.8 3.2 1.4 1.4 2.4 2.9 3.2 4.8.8 1.8 1.2 3.7 1.2 5.8 0 2.1-.4 4-1.2 5.8-.8 1.8-1.9 3.4-3.2 4.7-1.4 1.3-2.9 2.4-4.8 3.2-1.8.8-3.7 1.2-5.8 1.2-2.1 0-4-.4-5.8-1.2s-3.4-1.8-4.7-3.2c-1.3-1.3-2.4-2.9-3.2-4.7-.8-1.8-1.2-3.7-1.2-5.8zm5 0c0 1.4.3 2.7.8 4s1.2 2.3 2.2 3.2c.9.9 2 1.6 3.2 2.2 1.2.5 2.5.8 3.9.8s2.6-.3 3.9-.8c1.2-.5 2.3-1.3 3.2-2.2.9-.9 1.6-2 2.1-3.2s.8-2.6.8-4-.3-2.7-.8-4c-.5-1.2-1.3-2.3-2.2-3.3-.9-.9-2-1.7-3.2-2.2-1.2-.5-2.5-.8-3.9-.8s-2.7.3-3.9.8c-1.2.5-2.3 1.3-3.2 2.2s-1.6 2-2.1 3.3-.8 2.6-.8 4zM328.7 39.3V10.2h8.2c1.6 0 3.1.2 4.4.6 1.3.4 2.4 1 3.4 1.8.9.8 1.6 1.8 2.1 3s.8 2.5.8 4c0 1.2-.2 2.3-.5 3.5-.3 1.2-.9 2.2-1.7 3.1-.8.9-1.8 1.7-3.1 2.2-1.3.6-2.8.9-4.6.9h-4.1v10h-4.9zm4.9-14.6h3.9c1 0 1.9-.2 2.5-.5.7-.3 1.2-.8 1.6-1.3.4-.5.7-1.1.8-1.6.2-.6.2-1.1.2-1.5 0-.4-.1-.9-.2-1.5s-.4-1.1-.8-1.6-.9-.9-1.6-1.3c-.7-.3-1.5-.5-2.6-.5h-4v9.8zM348.9 39.3V10.2h19.4v4.4h-14.5v7.8h12.9V27h-12.9v7.8h15v4.6h-19.9zM386.7 35.3h8.6v4h-18.5c1.7-1.7 3.3-3.3 4.8-4.9 1.5-1.6 2.9-3.1 4.1-4.5 1.2-1.5 2.2-2.9 2.9-4.3.7-1.4 1.1-2.7 1.1-4 0-.9-.2-1.6-.5-2.2-.3-.6-.7-1.2-1.1-1.6-.5-.4-.9-.7-1.5-.9-.5-.2-1-.3-1.5-.3-.9 0-1.7.2-2.3.5s-1.1.7-1.4 1.2c-.4.5-.6.9-.7 1.4-.1.5-.2.9-.2 1.3 0 .9.1 1.7.4 2.3.3.7.7 1.3 1.2 1.8l-2.4 2.5c-.5-.3-1-.7-1.4-1.2-.4-.5-.7-1.1-1-1.8-.3-.6-.5-1.3-.6-1.9-.1-.6-.2-1.2-.2-1.7 0-1.1.2-2.1.6-3.1.4-1 1-1.9 1.7-2.7.7-.8 1.7-1.4 2.8-1.9 1.1-.5 2.3-.7 3.8-.7 1.3 0 2.5.2 3.6.7 1.1.5 2 1.1 2.8 1.9.8.8 1.3 1.7 1.8 2.7.4 1 .6 2.1.6 3.2 0 1.3-.2 2.5-.6 3.7-.4 1.2-.9 2.4-1.6 3.5-.7 1.2-1.4 2.3-2.3 3.5-1.1 1.2-2 2.4-3 3.5zM395.5 26c0-2.2.3-4.2.9-5.9.6-1.7 1.4-3.1 2.4-4.2s2.2-2 3.5-2.5c1.3-.5 2.7-.8 4.2-.8 1.6 0 3.1.3 4.4.9 1.3.6 2.5 1.5 3.4 2.7 1 1.2 1.7 2.6 2.2 4.3.5 1.7.8 3.6.8 5.7s-.3 4-.9 5.7c-.6 1.7-1.3 3.1-2.3 4.2-1 1.1-2.1 2-3.5 2.6-1.3.6-2.8.9-4.3.9s-2.9-.3-4.2-.9c-1.3-.6-2.5-1.5-3.4-2.6-1-1.1-1.7-2.6-2.3-4.3-.6-1.6-.9-3.6-.9-5.8zm4.2.1c0 1.3.2 2.5.5 3.6s.8 2.2 1.4 3c.6.9 1.3 1.6 2.1 2.1s1.7.8 2.6.8c.9 0 1.8-.3 2.6-.8s1.5-1.2 2.2-2.1c.6-.9 1.1-1.9 1.5-3s.5-2.4.5-3.7c0-.9-.1-1.8-.3-2.9-.2-1.1-.5-2.1-1-3.1s-1.2-1.8-2-2.5c-.9-.7-2-1-3.3-1-1.4 0-2.5.4-3.4 1.1-.9.7-1.6 1.6-2.1 2.6s-.9 2-1.1 3.1c-.1 1.2-.2 2.1-.2 2.8zM418.1 16.9v-4h6.4v26.4h-4.2V16.9h-2.2zM427.1 30.9c0-1 .1-1.9.4-2.7s.6-1.5 1-2.1c.4-.6.9-1.2 1.4-1.6.5-.4 1-.8 1.6-1.1-.7-.6-1.2-1.2-1.4-1.9-.3-.7-.4-1.4-.4-2 0-1 .2-1.9.5-2.8.3-.9.8-1.6 1.4-2.2.6-.6 1.3-1.1 2.1-1.4.8-.3 1.7-.5 2.6-.5.9 0 1.8.2 2.6.5s1.5.8 2.1 1.4c.6.6 1.1 1.3 1.4 2.2.3.8.5 1.8.5 2.7 0 .6-.1 1.3-.4 2-.3.7-.8 1.4-1.5 1.9.6.3 1.1.7 1.6 1.1.5.5 1 1 1.4 1.6.4.6.7 1.3 1 2.1.2.8.4 1.7.4 2.6 0 1.1-.2 2.2-.6 3.3-.4 1.1-1 2-1.8 2.8-.8.8-1.7 1.5-2.8 1.9-1.1.5-2.4.7-3.7.7-1.4 0-2.6-.2-3.7-.7-1.1-.5-2.1-1.1-2.8-1.9-.8-.8-1.4-1.7-1.8-2.8s-1.1-2-1.1-3.1zm4.3-.2c0 .7.1 1.3.4 1.9.3.6.6 1.1 1 1.6.4.4.9.8 1.5 1.1.6.3 1.2.4 1.9.4s1.3-.1 1.9-.4 1.1-.6 1.6-1.1c.4-.4.8-1 1.1-1.6.3-.6.4-1.2.4-1.9s-.1-1.3-.4-1.9c-.2-.6-.6-1.1-1-1.5-.4-.4-.9-.8-1.5-1.1-.6-.3-1.2-.4-1.9-.4s-1.3.1-1.9.4c-.6.2-1.1.6-1.6 1s-.8 1-1.1 1.6-.4 1.2-.4 1.9zm2.2-11.4c0 .7.3 1.3.8 1.8s1.2.7 1.9.7 1.3-.2 1.8-.7c.5-.5.8-1.1.8-1.8s-.3-1.4-.8-1.9-1.1-.8-1.8-.8c-.3 0-.7.1-1 .2-.3.1-.6.3-.9.6-.3.3-.5.5-.6.9-.1.3-.2.6-.2 1z"/></svg>