<svg xmlns="http://www.w3.org/2000/svg" width="1462.9685535647436" height="154.943397256252" style="background: rgba(0, 0, 0, 0);" preserveAspectRatio="xMidYMid"><rect id="backgroundrect" width="100%" height="100%" x="0" y="0" fill="none" stroke="none" class="" style=""/><defs><filter id="editing-extrude-glow"><feFlood flood-color="none" result="flood-1"/><feMorphology operator="erode" radius="1" in="SourceAlpha" result="erode"/><feComposite operator="in" in="flood-1" in2="erode" result="comp1"/><feConvolveMatrix order="0,0" divisor="1" in="comp1" result="convolve" kernelMatrix=""/><feOffset dx="0" dy="0" in="convolve" result="extrude"/><feComposite operator="in" in="flood-1" in2="extrude" result="comp-extrude"/><feFlood flood-color="rgba(0%,0%,0%,0)" result="flood-2"/><feComposite operator="in" in="flood-2" in2="SourceAlpha" result="comp2"/><feMorphology operator="dilate" radius="1" in="comp2" result="dilate"/><feOffset dx="0" dy="0" in="dilate" result="offset"/><feGaussianBlur in="offset" stdDeviation="5.8" result="blur"/><feComponentTransfer in="blur" result="shadow"><feFuncA type="linear" slope="0.8" intercept="-0.2"/></feComponentTransfer><feMerge><feMergeNode in="shadow"/><feMergeNode in="comp-extrude"/><feMergeNode in="SourceGraphic"/></feMerge></filter></defs><style>text {
  font-size: 64px;
  font-family: Arial Black;
  dominant-baseline: central;
  text-anchor: middle;
}</style><g class="currentLayer" style=""><title>Layer 1</title><g filter="url(#editing-extrude-glow)" id="svg_1" class="selected"><g id="svg_2"><path d="M140.63120517715709,24.33147946167935 L140.63120517715709,35.1783903917473 L136.21209331675902,35.58012783360168 L136.21209331675902,35.58012783360168 Q132.73036882068786,35.847952794837894 131.79298145636096,40.4009771358541 L131.79298145636096,40.4009771358541 L114.92000889847752,113.38327907273107 L96.57399905379467,113.38327907273107 L82.51318858889175,53.79222519766638 L82.11145114703741,53.79222519766638 L68.45237812398886,113.38327907273107 L49.57071835683354,113.38327907273107 L31.09079603153257,36.11577775607417 L23.457784636299582,35.7140403142198 L23.457784636299582,24.33147946167935 L56.668079829594056,24.33147946167935 L56.668079829594056,35.1783903917473 L52.248967969195995,35.58012783360168 L52.248967969195995,35.58012783360168 Q48.09768107003417,35.98186527545605 48.09768107003417,39.061852329672874 L48.09768107003417,39.061852329672874 L48.09768107003417,39.061852329672874 Q48.09768107003417,39.597502252145375 48.2315935506523,40.267064655236 L48.2315935506523,40.267064655236 L59.881979364428986,91.95728217383142 L60.41762928690149,91.95728217383142 L74.34452727118627,31.428840934439872 L91.6192372709241,31.428840934439872 L106.08178517768135,92.22510713506766 L106.34961013891763,92.22510713506766 L117.73217099145808,36.24969023669231 L110.50089703807944,35.7140403142198 L110.50089703807944,24.33147946167935 L140.63120517715709,24.33147946167935 zM169.82412595190792,103.60766798760808 L169.82412595190792,103.60766798760808 L169.82412595190792,103.60766798760808 Q184.42058633928326,103.60766798760808 184.42058633928326,80.03907139881848 L184.42058633928326,80.03907139881848 L184.42058633928326,80.03907139881848 Q184.42058633928326,68.12086062380556 181.13973056413926,61.960886515371875 L181.13973056413926,61.960886515371875 L181.13973056413926,61.960886515371875 Q177.85887478899528,55.800912406938224 170.1589071534532,55.800912406938224 L170.1589071534532,55.800912406938224 L170.1589071534532,55.800912406938224 Q162.45893951791115,55.800912406938224 158.84330254122182,61.69306155413564 L158.84330254122182,61.69306155413564 L158.84330254122182,61.69306155413564 Q155.2276655645325,67.58521070133304 155.2276655645325,77.76255922831037 L155.2276655645325,77.76255922831037 L155.2276655645325,77.76255922831037 Q155.2276655645325,96.64421899546569 162.19111455667485,101.46506829771815 L162.19111455667485,101.46506829771815 L162.19111455667485,101.46506829771815 Q165.2711016108917,103.60766798760808 169.82412595190792,103.60766798760808 zM139.02425540973962,79.63733395696408 L139.02425540973962,79.63733395696408 L139.02425540973962,79.63733395696408 Q139.02425540973962,69.727810391223 141.97032998333833,62.429580197535316 L141.97032998333833,62.429580197535316 L141.97032998333833,62.429580197535316 Q144.916404556937,55.13135000384762 149.87116633980756,51.24788806592205 L149.87116633980756,51.24788806592205 L149.87116633980756,51.24788806592205 Q159.37895246369428,44.01661411254341 170.89542579685286,44.01661411254341 L170.89542579685286,44.01661411254341 L170.89542579685286,44.01661411254341 Q178.93017463394023,44.01661411254341 184.48754257959234,46.627907484596825 L184.48754257959234,46.627907484596825 L184.48754257959234,46.627907484596825 Q190.0449105252444,49.23920085665021 193.1918538197703,52.65396911241236 L193.1918538197703,52.65396911241236 L193.1918538197703,52.65396911241236 Q196.3387971142962,56.068737368174475 198.54835304449523,62.56349267815344 L198.54835304449523,62.56349267815344 L198.54835304449523,62.56349267815344 Q200.75790897469423,69.0582479881324 200.75790897469423,77.8964717089285 L200.75790897469423,77.8964717089285 L200.75790897469423,77.8964717089285 Q200.75790897469423,96.37639403422948 191.78577277328003,105.88418015811618 L191.78577277328003,105.88418015811618 L191.78577277328003,105.88418015811618 Q182.81363657186577,115.39196628200293 168.81978234727197,115.39196628200293 L168.81978234727197,115.39196628200293 L168.81978234727197,115.39196628200293 Q154.8259281226781,115.39196628200293 146.92509176620882,106.3528738402796 L146.92509176620882,106.3528738402796 L146.92509176620882,106.3528738402796 Q139.02425540973962,97.31378139855632 139.02425540973962,79.63733395696408 zM218.03261897443215,98.38508124350133 L218.03261897443215,98.38508124350133 L218.03261897443215,61.29132411228125 L218.03261897443215,61.29132411228125 Q218.03261897443215,59.1487244223913 217.29610033103245,58.278293298373484 L217.29610033103245,58.278293298373484 L217.29610033103245,58.278293298373484 Q216.55958168763277,57.40786217435569 214.68480695897904,57.27394969373758 L214.68480695897904,57.27394969373758 L209.0604827730179,56.87221225188321 L209.0604827730179,46.02530132181527 L231.69169199748066,46.02530132181527 L231.69169199748066,56.068737368174475 L231.69169199748066,56.068737368174475 Q234.10211664860682,50.846150624067704 239.19079091209548,47.431382368305556 L239.19079091209548,47.431382368305556 L239.19079091209548,47.431382368305556 Q244.27946517558422,44.01661411254341 250.90813296618126,44.01661411254341 L250.90813296618126,44.01661411254341 L250.90813296618126,44.01661411254341 Q257.53680075677835,44.01661411254341 263.5628623845939,46.96268868614213 L263.5628623845939,46.96268868614213 L263.5628623845939,66.91564829824244 L251.10900168710845,67.8530356625693 L251.10900168710845,61.69306155413564 L251.10900168710845,61.69306155413564 Q251.10900168710845,59.01481194177318 249.76987688092723,58.34524953868259 L249.76987688092723,58.34524953868259 L249.76987688092723,58.34524953868259 Q248.2968395941279,57.675687135591964 246.1542399042379,57.675687135591964 L246.1542399042379,57.675687135591964 L246.1542399042379,57.675687135591964 Q240.797740679513,57.675687135591964 237.38297242375089,61.492192833208456 L237.38297242375089,61.492192833208456 L237.38297242375089,61.492192833208456 Q233.96820416798874,65.30869853082494 233.96820416798874,71.20084767802236 L233.96820416798874,71.20084767802236 L233.96820416798874,102.26854318142686 L245.61858998176547,102.80419310389938 L245.61858998176547,113.38327907273107 L209.7300451761085,113.38327907273107 L209.7300451761085,103.2059305457537 L214.14915703650655,102.80419310389938 L214.14915703650655,102.80419310389938 Q216.1578442457784,102.53636814266308 217.09523161010526,101.6659370186453 L217.09523161010526,101.6659370186453 L217.09523161010526,101.6659370186453 Q218.03261897443215,100.79550589462754 218.03261897443215,98.38508124350133 zM305.20964385683004,44.01661411254341 L305.20964385683004,44.01661411254341 L305.20964385683004,44.01661411254341 Q310.9678805234094,44.01661411254341 316.1904672675162,45.6235638799609 L316.1904672675162,45.6235638799609 L316.1904672675162,32.09840333753049 L316.1904672675162,32.09840333753049 Q316.1904672675162,29.152328763931763 312.708742771445,28.88450380269555 L312.708742771445,28.88450380269555 L306.95050610486567,28.48276636084116 L306.95050610486567,17.90368039200945 L331.8582274998365,17.90368039200945 L331.8582274998365,99.32246860782814 L331.8582274998365,99.32246860782814 Q331.9921399804546,102.402455662045 335.2060395152896,102.402455662045 L335.2060395152896,102.402455662045 L339.89297633692394,102.67028062328124 L339.89297633692394,113.38327907273107 L318.19915447678807,113.38327907273107 L318.19915447678807,105.48244271626184 L317.79741703493363,105.34853023564371 L317.79741703493363,105.34853023564371 Q311.77135540711816,115.1241413207667 299.5853196708689,115.1241413207667 L299.5853196708689,115.1241413207667 L299.5853196708689,115.1241413207667 Q284.31929688040293,115.1241413207667 278.1593227719693,104.94679279378933 L278.1593227719693,104.94679279378933 L278.1593227719693,104.94679279378933 Q272.5349985860081,95.70683163113887 272.5349985860081,82.31558356932655 L272.5349985860081,82.31558356932655 L272.5349985860081,82.31558356932655 Q272.5349985860081,64.90696108897058 281.17235358587703,54.461787600757 L281.17235358587703,54.461787600757 L281.17235358587703,54.461787600757 Q289.80970858574597,44.01661411254341 305.20964385683004,44.01661411254341 zM316.1904672675162,92.49293209630389 L316.1904672675162,92.49293209630389 L316.1904672675162,57.80959961621008 L316.1904672675162,57.80959961621008 Q311.3696179652637,55.66699992632013 306.0131187405388,55.66699992632013 L306.0131187405388,55.66699992632013 L306.0131187405388,55.66699992632013 Q297.17489501974273,55.66699992632013 293.09056436089,62.76436139908061 L293.09056436089,62.76436139908061 L293.09056436089,62.76436139908061 Q289.0062337020372,69.86172287184114 289.0062337020372,80.84254628252724 L289.0062337020372,80.84254628252724 L289.0062337020372,80.84254628252724 Q289.0062337020372,103.33984302637187 303.46878160879453,103.33984302637187 L303.46878160879453,103.33984302637187 L303.46878160879453,103.33984302637187 Q308.95919331413756,103.33984302637187 312.57483029082675,100.19289973184594 L312.57483029082675,100.19289973184594 L312.57483029082675,100.19289973184594 Q316.1904672675162,97.04595643732009 316.1904672675162,92.49293209630389 zM401.6266299018785,38.52620240720038 L401.6266299018785,38.52620240720038 L401.6266299018785,38.52620240720038 Q400.1535926150792,35.98186527545605 390.6458064911925,35.98186527545605 L390.6458064911925,35.98186527545605 L390.6458064911925,35.98186527545605 Q378.19194579370696,35.98186527545605 371.76414672403723,44.418351554397795 L371.76414672403723,44.418351554397795 L371.76414672403723,44.418351554397795 Q365.3363476543672,52.85483783333953 365.3363476543672,68.79042302689616 L365.3363476543672,68.79042302689616 L365.3363476543672,68.79042302689616 Q365.3363476543672,101.86680573957247 390.11015656872,101.86680573957247 L390.11015656872,101.86680573957247 L390.11015656872,101.86680573957247 Q390.5118940105744,101.86680573957247 393.6588373051003,101.86680573957247 L393.6588373051003,101.86680573957247 L393.6588373051003,101.86680573957247 Q396.80578059962613,101.86680573957247 399.6179426926066,100.99637461555471 L399.6179426926066,100.99637461555471 L399.6179426926066,100.99637461555471 Q402.43010478558733,100.12594349153693 402.96575470805976,99.18855612721003 L402.96575470805976,99.18855612721003 L402.96575470805976,99.18855612721003 Q403.50140463053225,98.25116876288315 403.50140463053225,96.24248155361131 L403.50140463053225,96.24248155361131 L403.50140463053225,85.52948310416153 L417.16047765358076,86.46687046848837 L417.16047765358076,109.63372961542358 L417.16047765358076,109.63372961542358 Q406.7153041653673,115.1241413207667 390.6458064911925,115.1241413207667 L390.6458064911925,115.1241413207667 L390.6458064911925,115.1241413207667 Q370.1571969566197,115.1241413207667 359.3772422668609,103.60766798760808 L359.3772422668609,103.60766798760808 L359.3772422668609,103.60766798760808 Q348.59728757710195,92.09119465444955 348.59728757710195,69.32607294936864 L348.59728757710195,69.32607294936864 L348.59728757710195,69.32607294936864 Q348.59728757710195,56.7382997712651 352.21292455379125,47.36442612799648 L352.21292455379125,47.36442612799648 L352.21292455379125,47.36442612799648 Q355.8285615304806,37.99055248472787 361.9885356389142,32.76796574062111 L361.9885356389142,32.76796574062111 L361.9885356389142,32.76796574062111 Q374.0406588945453,22.724529694261882 390.6458064911925,22.724529694261882 L390.6458064911925,22.724529694261882 L390.6458064911925,22.724529694261882 Q404.03705455300474,22.724529694261882 415.8213528473996,28.214941399604932 L415.8213528473996,28.214941399604932 L415.8213528473996,50.980063104685804 L402.162279824351,51.91745046901266 L402.162279824351,41.47227698079909 L402.162279824351,41.47227698079909 Q402.162279824351,39.463589771527246 401.6266299018785,38.52620240720038 zM488.4019173424222,48.70355093417772 L488.4019173424222,48.70355093417772 L488.4019173424222,98.51899372411945 L488.4019173424222,98.51899372411945 Q488.4019173424222,100.66159341400939 489.13843598582184,101.46506829771815 L489.13843598582184,101.46506829771815 L489.13843598582184,101.46506829771815 Q489.8749546292215,102.26854318142686 491.74972935787525,102.402455662045 L491.74972935787525,102.402455662045 L496.0349287376551,102.67028062328124 L496.0349287376551,113.38327907273107 L474.7428443193737,113.38327907273107 L474.7428443193737,105.61635519687994 L474.34110687751934,105.48244271626184 L474.34110687751934,105.48244271626184 Q467.64548284661316,115.1241413207667 455.9950970328365,115.1241413207667 L455.9950970328365,115.1241413207667 L455.9950970328365,115.1241413207667 Q442.33602400978793,115.1241413207667 435.7743124594999,106.41983008058872 L435.7743124594999,106.41983008058872 L435.7743124594999,106.41983008058872 Q429.2126009092119,97.71551884041071 429.2126009092119,82.5834085305628 L429.2126009092119,82.5834085305628 L429.2126009092119,82.5834085305628 Q429.2126009092119,64.3713111664981 438.05082463000804,54.193962639520755 L438.05082463000804,54.193962639520755 L438.05082463000804,54.193962639520755 Q446.8890483508041,44.01661411254341 464.5654957923963,44.01661411254341 L464.5654957923963,44.01661411254341 L464.5654957923963,44.01661411254341 Q475.94805664493674,44.01661411254341 488.4019173424222,48.70355093417772 zM472.86806959072,92.09119465444955 L472.86806959072,92.09119465444955 L472.86806959072,57.40786217435569 L472.86806959072,57.40786217435569 Q469.11852013341246,55.66699992632013 462.55680858312445,55.66699992632013 L462.55680858312445,55.66699992632013 L462.55680858312445,55.66699992632013 Q453.58467238171016,55.66699992632013 449.5672979631666,62.89827387969874 L449.5672979631666,62.89827387969874 L449.5672979631666,62.89827387969874 Q445.54992354462297,70.1295478330774 445.54992354462297,82.0477586080903 L445.54992354462297,82.0477586080903 L445.54992354462297,82.0477586080903 Q445.54992354462297,103.74158046822625 459.4768215289077,103.74158046822625 L459.4768215289077,103.74158046822625 L459.4768215289077,103.74158046822625 Q465.36897067610505,103.74158046822625 469.11852013341246,100.19289973184594 L469.11852013341246,100.19289973184594 L469.11852013341246,100.19289973184594 Q472.86806959072,96.64421899546569 472.86806959072,92.09119465444955 zM509.0244393576131,57.27394969373758 L503.40011517165186,56.87221225188321 L503.40011517165186,46.02530132181527 L526.0313243961148,46.02530132181527 L526.0313243961148,54.72961256199324 L526.0313243961148,54.72961256199324 Q533.5304233107296,44.01661411254341 546.5868901709966,44.01661411254341 L546.5868901709966,44.01661411254341 L546.5868901709966,44.01661411254341 Q559.6433570312636,44.01661411254341 564.1963813722798,54.72961256199324 L564.1963813722798,54.72961256199324 L564.1963813722798,54.72961256199324 Q571.6954802868946,44.01661411254341 584.5510784262345,44.01661411254341 L584.5510784262345,44.01661411254341 L584.5510784262345,44.01661411254341 Q594.1927770307392,44.01661411254341 599.4153637748461,49.84180701943177 L599.4153637748461,49.84180701943177 L599.4153637748461,49.84180701943177 Q604.6379505189528,55.66699992632013 604.6379505189528,67.3173857400968 L604.6379505189528,67.3173857400968 L604.6379505189528,102.26854318142686 L612.2709619141858,102.67028062328124 L612.2709619141858,113.38327907273107 L580.3997915270727,113.38327907273107 L580.3997915270727,103.2059305457537 L584.8189033874706,102.80419310389938 L584.8189033874706,102.80419310389938 Q586.8275905967424,102.53636814266308 587.6980217207603,101.6659370186453 L587.6980217207603,101.6659370186453 L587.6980217207603,101.6659370186453 Q588.5684528447781,100.79550589462754 588.7023653253963,98.51899372411945 L588.7023653253963,98.51899372411945 L588.7023653253963,70.79911023616799 L588.7023653253963,70.79911023616799 Q588.7023653253963,63.43392380217122 587.0284593176698,59.885243065790974 L587.0284593176698,59.885243065790974 L587.0284593176698,59.885243065790974 Q585.3545533099431,56.336562329410725 579.1945792015096,56.336562329410725 L579.1945792015096,56.336562329410725 L579.1945792015096,56.336562329410725 Q573.0346050930759,56.336562329410725 569.7537493179318,60.08611178671815 L569.7537493179318,60.08611178671815 L569.7537493179318,60.08611178671815 Q566.4728935427879,63.835661244025594 566.4728935427879,70.1295478330774 L566.4728935427879,70.1295478330774 L566.4728935427879,102.26854318142686 L573.8380799767846,102.67028062328124 L573.8380799767846,113.38327907273107 L542.2347345509075,113.38327907273107 L542.2347345509075,103.2059305457537 L546.6538464113056,102.80419310389938 L546.6538464113056,102.80419310389938 Q548.6625336205774,102.53636814266308 549.5999209849044,101.6659370186453 L549.5999209849044,101.6659370186453 L549.5999209849044,101.6659370186453 Q550.5373083492311,100.79550589462754 550.5373083492311,98.38508124350133 L550.5373083492311,98.38508124350133 L550.5373083492311,70.79911023616799 L550.5373083492311,70.79911023616799 Q550.5373083492311,63.43392380217122 548.8634023415046,59.885243065790974 L548.8634023415046,59.885243065790974 L548.8634023415046,59.885243065790974 Q547.1894963337782,56.336562329410725 540.9625659850353,56.336562329410725 L540.9625659850353,56.336562329410725 L540.9625659850353,56.336562329410725 Q534.7356356362927,56.336562329410725 531.5217361014578,60.220024267336285 L531.5217361014578,60.220024267336285 L531.5217361014578,60.220024267336285 Q528.3078365666228,64.10348620526185 528.3078365666228,69.86172287184114 L528.3078365666228,69.86172287184114 L528.3078365666228,102.26854318142686 L535.5391105200015,102.67028062328124 L535.5391105200015,113.38327907273107 L503.9357650941244,113.38327907273107 L503.9357650941244,103.2059305457537 L508.3548769545225,102.80419310389938 L508.3548769545225,102.80419310389938 Q510.36356416379436,102.53636814266308 511.3009515281212,101.6659370186453 L511.3009515281212,101.6659370186453 L511.3009515281212,101.6659370186453 Q512.238338892448,100.79550589462754 512.238338892448,98.38508124350133 L512.238338892448,98.38508124350133 L512.3722513730663,98.38508124350133 L512.3722513730663,61.42523659289939 L512.3722513730663,61.42523659289939 Q512.3722513730663,59.1487244223913 511.6357327296664,58.278293298373484 L511.6357327296664,58.278293298373484 L511.6357327296664,58.278293298373484 Q510.89921408626685,57.40786217435569 509.0244393576131,57.27394969373758 L509.0244393576131,57.27394969373758 zM627.67089718527,126.10496473145275 L627.67089718527,126.10496473145275 L627.67089718527,61.29132411228125 L627.67089718527,61.29132411228125 Q627.67089718527,59.01481194177318 626.9343785418704,58.14438081775539 L626.9343785418704,58.14438081775539 L626.9343785418704,58.14438081775539 Q626.1978598984705,57.27394969373758 624.3230851698169,57.27394969373758 L624.3230851698169,57.27394969373758 L618.6987609838558,56.87221225188321 L618.6987609838558,46.02530132181527 L641.3299702083184,46.02530132181527 L641.3299702083184,54.72961256199324 L641.3299702083184,54.72961256199324 Q643.4725698982085,50.712238143449554 649.0968940841695,47.36442612799648 L649.0968940841695,47.36442612799648 L649.0968940841695,47.36442612799648 Q654.7212182701307,44.01661411254341 662.488142145982,44.01661411254341 L662.488142145982,44.01661411254341 L662.488142145982,44.01661411254341 Q686.7263011378622,44.01661411254341 686.7263011378622,78.03038418954664 L686.7263011378622,78.03038418954664 L686.7263011378622,78.03038418954664 Q686.7263011378622,96.1085690729932 678.825464781393,105.7502676774981 L678.825464781393,105.7502676774981 L678.825464781393,105.7502676774981 Q670.9246284249236,115.39196628200293 657.3994678824932,115.39196628200293 L657.3994678824932,115.39196628200293 L657.3994678824932,115.39196628200293 Q649.3647190454059,115.39196628200293 643.0708324563542,111.50850434407735 L643.0708324563542,111.50850434407735 L643.0708324563542,129.98842666937827 L653.917743386422,130.52407659185081 L653.917743386422,141.10316256068248 L619.3683233869464,141.10316256068248 L619.3683233869464,130.9258140337052 L623.7874352473444,130.52407659185081 L623.7874352473444,130.52407659185081 Q625.7961224566162,130.25625163061454 626.7335098209431,129.3858205065967 L626.7335098209431,129.3858205065967 L626.7335098209431,129.3858205065967 Q627.67089718527,128.51538938257897 627.67089718527,126.10496473145275 zM670.1211535412149,79.36950899572787 L670.1211535412149,79.36950899572787 L670.1211535412149,79.36950899572787 Q670.1211535412149,57.00612473250134 656.5959929987845,57.00612473250134 L656.5959929987845,57.00612473250134 L656.5959929987845,57.00612473250134 Q650.9716688128234,57.00612473250134 647.0212506345887,60.42089298826346 L647.0212506345887,60.42089298826346 L647.0212506345887,60.42089298826346 Q643.0708324563542,63.835661244025594 643.0708324563542,68.52259806565992 L643.0708324563542,68.52259806565992 L643.0708324563542,99.32246860782814 L643.0708324563542,99.32246860782814 Q648.1595067198427,102.67028062328124 655.4577369135304,102.67028062328124 L655.4577369135304,102.67028062328124 L655.4577369135304,102.67028062328124 Q662.7559671072182,102.67028062328124 666.4385603242165,95.97465659237508 L666.4385603242165,95.97465659237508 L666.4385603242165,95.97465659237508 Q670.1211535412149,89.27903256146894 670.1211535412149,79.36950899572787 zM786.7589241595999,89.54685752270521 L786.7589241595999,113.38327907273107 L723.1504958659915,113.38327907273107 L723.1504958659915,102.53636814266308 L727.5696077263896,102.13463070080877 L727.5696077263896,102.13463070080877 Q731.4530696643153,101.73289325895439 731.4530696643153,98.38508124350133 L731.4530696643153,98.38508124350133 L731.4530696643153,36.11577775607417 L723.8200582690822,35.7140403142198 L723.8200582690822,24.33147946167935 L785.1519743921824,24.33147946167935 L785.1519743921824,46.56095124428775 L771.4929013691337,47.49833860861462 L771.4929013691337,42.1418393838897 L771.4929013691337,42.1418393838897 Q771.4929013691337,39.8653272133816 770.8233389660434,38.927939849054766 L770.8233389660434,38.927939849054766 L770.8233389660434,38.927939849054766 Q770.1537765629528,37.99055248472787 767.6094394312083,37.99055248472787 L767.6094394312083,37.99055248472787 L747.7903922997264,37.99055248472787 L747.7903922997264,60.88958667042691 L778.7241753225126,60.88958667042691 L778.7241753225126,74.54865969347543 L747.7903922997264,74.54865969347543 L747.7903922997264,99.59029356906437 L769.350301679244,99.59029356906437 L769.350301679244,99.59029356906437 Q771.76072633037,99.59029356906437 772.4302887334608,98.58594996442848 L772.4302887334608,98.58594996442848 L772.4302887334608,98.58594996442848 Q773.0998511365514,97.58160635979257 773.0998511365514,95.30509418928449 L773.0998511365514,95.30509418928449 L773.0998511365514,88.60947015837833 L786.7589241595999,89.54685752270521 zM862.8212131506937,102.402455662045 L867.5081499723279,102.80419310389938 L867.5081499723279,113.38327907273107 L845.8143281121921,113.38327907273107 L845.8143281121921,104.6789678325531 L845.8143281121921,104.6789678325531 Q838.4491416781954,115.1241413207667 824.1205062520562,115.1241413207667 L824.1205062520562,115.1241413207667 L824.1205062520562,115.1241413207667 Q803.3640717562471,115.1241413207667 803.3640717562471,91.95728217383142 L803.3640717562471,91.95728217383142 L803.3640717562471,61.02349915104504 L803.3640717562471,61.02349915104504 Q803.3640717562471,57.40786217435569 800.0162597407942,57.27394969373758 L800.0162597407942,57.27394969373758 L795.7310603610142,57.00612473250134 L795.7310603610142,46.02530132181527 L819.2996569498038,46.02530132181527 L819.2996569498038,88.4755576777602 L819.2996569498038,88.4755576777602 Q819.2996569498038,95.57291915052069 821.3083441590757,99.18855612721003 L821.3083441590757,99.18855612721003 L821.3083441590757,99.18855612721003 Q823.3170313683474,102.80419310389938 829.6109179573992,102.80419310389938 L829.6109179573992,102.80419310389938 L829.6109179573992,102.80419310389938 Q835.904804546451,102.80419310389938 839.7213102440675,98.92073116597375 L839.7213102440675,98.92073116597375 L839.7213102440675,98.92073116597375 Q843.5378159416841,95.03726922804825 843.5378159416841,89.54685752270521 L843.5378159416841,89.54685752270521 L843.5378159416841,61.29132411228125 L843.5378159416841,61.29132411228125 Q843.5378159416841,59.1487244223913 842.8012972982843,58.278293298373484 L842.8012972982843,58.278293298373484 L842.8012972982843,58.278293298373484 Q842.0647786548847,57.40786217435569 840.1900039262312,57.27394969373758 L840.1900039262312,57.27394969373758 L835.904804546451,57.00612473250134 L835.904804546451,46.02530132181527 L859.4734011352406,46.02530132181527 L859.4734011352406,98.51899372411945 L859.4734011352406,98.51899372411945 Q859.4734011352406,100.66159341400939 860.1429635383313,101.39811205740911 L860.1429635383313,101.39811205740911 L860.1429635383313,101.39811205740911 Q860.8125259414219,102.13463070080877 862.8212131506937,102.402455662045 L862.8212131506937,102.402455662045 zM883.9793850883572,98.38508124350133 L883.9793850883572,98.38508124350133 L883.9793850883572,61.29132411228125 L883.9793850883572,61.29132411228125 Q883.9793850883572,59.1487244223913 883.2428664449574,58.278293298373484 L883.2428664449574,58.278293298373484 L883.2428664449574,58.278293298373484 Q882.5063478015577,57.40786217435569 880.6315730729042,57.27394969373758 L880.6315730729042,57.27394969373758 L875.007248886943,56.87221225188321 L875.007248886943,46.02530132181527 L897.6384581114056,46.02530132181527 L897.6384581114056,56.068737368174475 L897.6384581114056,56.068737368174475 Q900.0488827625319,50.846150624067704 905.1375570260205,47.431382368305556 L905.1375570260205,47.431382368305556 L905.1375570260205,47.431382368305556 Q910.2262312895093,44.01661411254341 916.8548990801064,44.01661411254341 L916.8548990801064,44.01661411254341 L916.8548990801064,44.01661411254341 Q923.4835668707034,44.01661411254341 929.509628498519,46.96268868614213 L929.509628498519,46.96268868614213 L929.509628498519,66.91564829824244 L917.0557678010333,67.8530356625693 L917.0557678010333,61.69306155413564 L917.0557678010333,61.69306155413564 Q917.0557678010333,59.01481194177318 915.7166429948521,58.34524953868259 L915.7166429948521,58.34524953868259 L915.7166429948521,58.34524953868259 Q914.243605708053,57.675687135591964 912.1010060181629,57.675687135591964 L912.1010060181629,57.675687135591964 L912.1010060181629,57.675687135591964 Q906.744506793438,57.675687135591964 903.3297385376758,61.492192833208456 L903.3297385376758,61.492192833208456 L903.3297385376758,61.492192833208456 Q899.9149702819137,65.30869853082494 899.9149702819137,71.20084767802236 L899.9149702819137,71.20084767802236 L899.9149702819137,102.26854318142686 L911.5653560956905,102.80419310389938 L911.5653560956905,113.38327907273107 L875.6768112900336,113.38327907273107 L875.6768112900336,103.2059305457537 L880.0959231504316,102.80419310389938 L880.0959231504316,102.80419310389938 Q882.1046103597035,102.53636814266308 883.0419977240302,101.6659370186453 L883.0419977240302,101.6659370186453 L883.0419977240302,101.6659370186453 Q883.9793850883572,100.79550589462754 883.9793850883572,98.38508124350133 zM965.6659982654121,103.60766798760808 L965.6659982654121,103.60766798760808 L965.6659982654121,103.60766798760808 Q980.2624586527876,103.60766798760808 980.2624586527876,80.03907139881848 L980.2624586527876,80.03907139881848 L980.2624586527876,80.03907139881848 Q980.2624586527876,68.12086062380556 976.9816028776435,61.960886515371875 L976.9816028776435,61.960886515371875 L976.9816028776435,61.960886515371875 Q973.7007471024995,55.800912406938224 966.0007794669574,55.800912406938224 L966.0007794669574,55.800912406938224 L966.0007794669574,55.800912406938224 Q958.3008118314152,55.800912406938224 954.685174854726,61.69306155413564 L954.685174854726,61.69306155413564 L954.685174854726,61.69306155413564 Q951.0695378780368,67.58521070133304 951.0695378780368,77.76255922831037 L951.0695378780368,77.76255922831037 L951.0695378780368,77.76255922831037 Q951.0695378780368,96.64421899546569 958.0329868701791,101.46506829771815 L958.0329868701791,101.46506829771815 L958.0329868701791,101.46506829771815 Q961.112973924396,103.60766798760808 965.6659982654121,103.60766798760808 zM934.8661277232438,79.63733395696408 L934.8661277232438,79.63733395696408 L934.8661277232438,79.63733395696408 Q934.8661277232438,69.727810391223 937.8122022968424,62.429580197535316 L937.8122022968424,62.429580197535316 L937.8122022968424,62.429580197535316 Q940.7582768704413,55.13135000384762 945.7130386533117,51.24788806592205 L945.7130386533117,51.24788806592205 L945.7130386533117,51.24788806592205 Q955.2208247771985,44.01661411254341 966.7372981103571,44.01661411254341 L966.7372981103571,44.01661411254341 L966.7372981103571,44.01661411254341 Q974.7720469474446,44.01661411254341 980.3294148930964,46.627907484596825 L980.3294148930964,46.627907484596825 L980.3294148930964,46.627907484596825 Q985.8867828387487,49.23920085665021 989.0337261332745,52.65396911241236 L989.0337261332745,52.65396911241236 L989.0337261332745,52.65396911241236 Q992.1806694278006,56.068737368174475 994.3902253579994,62.56349267815344 L994.3902253579994,62.56349267815344 L994.3902253579994,62.56349267815344 Q996.5997812881986,69.0582479881324 996.5997812881986,77.8964717089285 L996.5997812881986,77.8964717089285 L996.5997812881986,77.8964717089285 Q996.5997812881986,96.37639403422948 987.6276450867844,105.88418015811618 L987.6276450867844,105.88418015811618 L987.6276450867844,105.88418015811618 Q978.65550888537,115.39196628200293 964.6616546607761,115.39196628200293 L964.6616546607761,115.39196628200293 L964.6616546607761,115.39196628200293 Q950.6678004361823,115.39196628200293 942.766964079713,106.3528738402796 L942.766964079713,106.3528738402796 L942.766964079713,106.3528738402796 Q934.8661277232438,97.31378139855632 934.8661277232438,79.63733395696408 zM1013.0710164042276,126.10496473145275 L1013.0710164042276,126.10496473145275 L1013.0710164042276,61.29132411228125 L1013.0710164042276,61.29132411228125 Q1013.0710164042276,59.01481194177318 1012.334497760828,58.14438081775539 L1012.334497760828,58.14438081775539 L1012.334497760828,58.14438081775539 Q1011.5979791174283,57.27394969373758 1009.7232043887744,57.27394969373758 L1009.7232043887744,57.27394969373758 L1004.0988802028132,56.87221225188321 L1004.0988802028132,46.02530132181527 L1026.7300894272762,46.02530132181527 L1026.7300894272762,54.72961256199324 L1026.7300894272762,54.72961256199324 Q1028.8726891171664,50.712238143449554 1034.4970133031275,47.36442612799648 L1034.4970133031275,47.36442612799648 L1034.4970133031275,47.36442612799648 Q1040.1213374890883,44.01661411254341 1047.8882613649396,44.01661411254341 L1047.8882613649396,44.01661411254341 L1047.8882613649396,44.01661411254341 Q1072.12642035682,44.01661411254341 1072.12642035682,78.03038418954664 L1072.12642035682,78.03038418954664 L1072.12642035682,78.03038418954664 Q1072.12642035682,96.1085690729932 1064.2255840003509,105.7502676774981 L1064.2255840003509,105.7502676774981 L1064.2255840003509,105.7502676774981 Q1056.3247476438812,115.39196628200293 1042.799587101451,115.39196628200293 L1042.799587101451,115.39196628200293 L1042.799587101451,115.39196628200293 Q1034.7648382643638,115.39196628200293 1028.4709516753114,111.50850434407735 L1028.4709516753114,111.50850434407735 L1028.4709516753114,129.98842666937827 L1039.3178626053798,130.52407659185081 L1039.3178626053798,141.10316256068248 L1004.7684426059039,141.10316256068248 L1004.7684426059039,130.9258140337052 L1009.1875544663021,130.52407659185081 L1009.1875544663021,130.52407659185081 Q1011.1962416755738,130.25625163061454 1012.1336290399007,129.3858205065967 L1012.1336290399007,129.3858205065967 L1012.1336290399007,129.3858205065967 Q1013.0710164042276,128.51538938257897 1013.0710164042276,126.10496473145275 zM1055.5212727601727,79.36950899572787 L1055.5212727601727,79.36950899572787 L1055.5212727601727,79.36950899572787 Q1055.5212727601727,57.00612473250134 1041.9961122177424,57.00612473250134 L1041.9961122177424,57.00612473250134 L1041.9961122177424,57.00612473250134 Q1036.3717880317813,57.00612473250134 1032.4213698535464,60.42089298826346 L1032.4213698535464,60.42089298826346 L1032.4213698535464,60.42089298826346 Q1028.4709516753114,63.835661244025594 1028.4709516753114,68.52259806565992 L1028.4709516753114,68.52259806565992 L1028.4709516753114,99.32246860782814 L1028.4709516753114,99.32246860782814 Q1033.5596259388003,102.67028062328124 1040.857856132488,102.67028062328124 L1040.857856132488,102.67028062328124 L1040.857856132488,102.67028062328124 Q1048.156086326176,102.67028062328124 1051.8386795431743,95.97465659237508 L1051.8386795431743,95.97465659237508 L1051.8386795431743,95.97465659237508 Q1055.5212727601727,89.27903256146894 1055.5212727601727,79.36950899572787 zM1115.2462391158556,44.01661411254341 L1115.2462391158556,44.01661411254341 L1115.2462391158556,44.01661411254341 Q1125.2896751622145,44.01661411254341 1131.1818243094117,48.904419655104896 L1131.1818243094117,48.904419655104896 L1131.1818243094117,48.904419655104896 Q1137.073973456609,53.79222519766638 1137.073973456609,62.630448918462484 L1137.073973456609,62.630448918462484 L1137.073973456609,62.630448918462484 Q1137.073973456609,68.52259806565992 1134.5296363248651,73.00866616636702 L1134.5296363248651,73.00866616636702 L1134.5296363248651,73.00866616636702 Q1131.985299193121,77.49473426707415 1128.2357497358134,80.03907139881848 L1128.2357497358134,80.03907139881848 L1128.2357497358134,80.03907139881848 Q1124.4862002785057,82.5834085305628 1119.1297010537805,84.19035829798028 L1119.1297010537805,84.19035829798028 L1119.1297010537805,84.19035829798028 Q1110.1575648523665,86.86860791034275 1098.9089164804443,86.86860791034275 L1098.9089164804443,86.86860791034275 L1098.9089164804443,86.86860791034275 Q1099.310653922299,93.96596938310324 1103.3280283408424,98.31812500319225 L1103.3280283408424,98.31812500319225 L1103.3280283408424,98.31812500319225 Q1107.345402759386,102.67028062328124 1115.6479765577099,102.67028062328124 L1115.6479765577099,102.67028062328124 L1115.6479765577099,102.67028062328124 Q1123.9505503560335,102.67028062328124 1132.2531241543568,96.77813147608383 L1132.2531241543568,96.77813147608383 L1137.3417984178454,107.62504240615176 L1137.3417984178454,107.62504240615176 Q1134.6635488054835,110.03546705727797 1128.3027059761225,112.5798041890223 L1128.3027059761225,112.5798041890223 L1128.3027059761225,112.5798041890223 Q1121.9418631467615,115.1241413207667 1113.773201829056,115.1241413207667 L1113.773201829056,115.1241413207667 L1113.773201829056,115.1241413207667 Q1097.435879193645,115.1241413207667 1089.802867798412,106.08504887904337 L1089.802867798412,106.08504887904337 L1089.802867798412,106.08504887904337 Q1082.169856403179,97.04595643732009 1082.169856403179,81.24428372438157 L1082.169856403179,81.24428372438157 L1082.169856403179,81.24428372438157 Q1082.169856403179,65.44261101144306 1090.8741676433567,54.72961256199324 L1090.8741676433567,54.72961256199324 L1090.8741676433567,54.72961256199324 Q1099.578478883535,44.01661411254341 1115.2462391158556,44.01661411254341 zM1109.153221247731,74.61561593378448 L1109.153221247731,74.61561593378448 L1109.153221247731,74.61561593378448 Q1114.0410267902919,73.7451848097667 1118.192313689454,70.73215399585891 L1118.192313689454,70.73215399585891 L1118.192313689454,70.73215399585891 Q1122.3436005886158,67.71912318195118 1122.3436005886158,63.567836282789365 L1122.3436005886158,63.567836282789365 L1122.3436005886158,63.567836282789365 Q1122.3436005886158,55.39917496508385 1114.3088517515287,55.39917496508385 L1114.3088517515287,55.39917496508385 L1114.3088517515287,55.39917496508385 Q1106.8097528369135,55.39917496508385 1102.79237841837,61.35828035259033 L1102.79237841837,61.35828035259033 L1102.79237841837,61.35828035259033 Q1098.7750039998264,67.3173857400968 1098.3732665579716,75.61995953842039 L1098.3732665579716,75.61995953842039 L1098.3732665579716,75.61995953842039 Q1104.2654157051693,75.48604705780231 1109.153221247731,74.61561593378448 zM1230.1431474862045,113.38327907273107 L1176.7120677195737,113.38327907273107 L1176.7120677195737,103.07201806513562 L1203.3606513625803,69.45998542998677 L1203.3606513625803,69.45998542998677 Q1207.511938261742,64.10348620526185 1208.851063067923,62.29566771691719 L1208.851063067923,62.29566771691719 L1208.851063067923,62.29566771691719 Q1210.1901878741046,60.487849228572536 1211.4623564399762,57.20699345342852 L1211.4623564399762,57.20699345342852 L1211.4623564399762,57.20699345342852 Q1212.734525005849,53.926137678284505 1212.734525005849,49.30615709695928 L1212.734525005849,49.30615709695928 L1212.734525005849,49.30615709695928 Q1212.734525005849,44.686176515634024 1209.587581711323,41.74010194203533 L1209.587581711323,41.74010194203533 L1209.587581711323,41.74010194203533 Q1206.4406384167967,38.79402736843662 1201.5528328742357,38.79402736843662 L1201.5528328742357,38.79402736843662 L1201.5528328742357,38.79402736843662 Q1196.665027331674,38.79402736843662 1194.1876464402387,39.597502252145375 L1194.1876464402387,39.597502252145375 L1194.1876464402387,39.597502252145375 Q1191.7102655488034,40.4009771358541 1191.24157186664,41.40532074049003 L1191.24157186664,41.40532074049003 L1191.24157186664,41.40532074049003 Q1190.7728781844764,42.40966434512594 1190.7728781844764,44.552264035015895 L1190.7728781844764,44.552264035015895 L1190.7728781844764,54.060050158902634 L1177.1138051614282,53.12266279457577 L1177.1138051614282,31.696665895676105 L1177.1138051614282,31.696665895676105 Q1189.7015783395314,25.402779306624335 1202.958913920726,25.402779306624335 L1202.958913920726,25.402779306624335 L1202.958913920726,25.402779306624335 Q1216.2162495019202,25.402779306624335 1222.9118735328261,31.897534616603302 L1222.9118735328261,31.897534616603302 L1222.9118735328261,31.897534616603302 Q1229.6074975637318,38.39228992658226 1229.6074975637318,49.6409382985046 L1229.6074975637318,49.6409382985046 L1229.6074975637318,49.6409382985046 Q1229.6074975637318,60.88958667042691 1218.2249367111915,74.68257217409356 L1218.2249367111915,74.68257217409356 L1196.665027331674,100.12594349153693 L1230.1431474862045,100.12594349153693 L1230.1431474862045,113.38327907273107 zM1273.9325286483308,25.402779306624335 L1273.9325286483308,25.402779306624335 L1273.9325286483308,25.402779306624335 Q1304.3306617486446,25.402779306624335 1304.3306617486446,69.45998542998677 L1304.3306617486446,69.45998542998677 L1304.3306617486446,69.45998542998677 Q1304.3306617486446,92.89466953815827 1296.4298253921759,103.80853670853527 L1296.4298253921759,103.80853670853527 L1296.4298253921759,103.80853670853527 Q1288.5289890357064,114.7224038789123 1272.9951412840041,114.7224038789123 L1272.9951412840041,114.7224038789123 L1272.9951412840041,114.7224038789123 Q1257.4612935323023,114.7224038789123 1249.828282137069,103.94244918915336 L1249.828282137069,103.94244918915336 L1249.828282137069,103.94244918915336 Q1242.195270741836,93.16249449939451 1242.195270741836,70.3973727943136 L1242.195270741836,70.3973727943136 L1242.195270741836,70.3973727943136 Q1242.195270741836,47.63225108923275 1250.6317570207773,36.51751519792852 L1250.6317570207773,36.51751519792852 L1250.6317570207773,36.51751519792852 Q1259.0682432997194,25.402779306624335 1273.9325286483308,25.402779306624335 zM1262.2151865942453,94.97031298773918 L1262.2151865942453,94.97031298773918 L1262.2151865942453,94.97031298773918 Q1266.0316922918616,101.86680573957247 1273.2629662452402,101.86680573957247 L1273.2629662452402,101.86680573957247 L1273.2629662452402,101.86680573957247 Q1280.494240198619,101.86680573957247 1284.4446583768538,94.76944426681199 L1284.4446583768538,94.76944426681199 L1284.4446583768538,94.76944426681199 Q1288.3950765550885,87.67208279405146 1288.3950765550885,70.0625915927683 L1288.3950765550885,70.0625915927683 L1288.3950765550885,70.0625915927683 Q1288.3950765550885,52.453100391485165 1284.5785708574715,45.48965139934278 L1284.5785708574715,45.48965139934278 L1284.5785708574715,45.48965139934278 Q1280.7620651598554,38.52620240720038 1273.3968787258582,38.52620240720038 L1273.3968787258582,38.52620240720038 L1273.3968787258582,38.52620240720038 Q1266.0316922918616,38.52620240720038 1262.2151865942453,45.9583450815062 L1262.2151865942453,45.9583450815062 L1262.2151865942453,45.9583450815062 Q1258.3986808966285,53.39048775581202 1258.3986808966285,70.73215399585891 L1258.3986808966285,70.73215399585891 L1258.3986808966285,70.73215399585891 Q1258.3986808966285,88.07382023590586 1262.2151865942453,94.97031298773918 zM1370.4834271739976,113.38327907273107 L1317.0523474073664,113.38327907273107 L1317.0523474073664,103.07201806513562 L1343.7009310503731,69.45998542998677 L1343.7009310503731,69.45998542998677 Q1347.8522179495349,64.10348620526185 1349.191342755716,62.29566771691719 L1349.191342755716,62.29566771691719 L1349.191342755716,62.29566771691719 Q1350.530467561897,60.487849228572536 1351.8026361277693,57.20699345342852 L1351.8026361277693,57.20699345342852 L1351.8026361277693,57.20699345342852 Q1353.0748046936415,53.926137678284505 1353.0748046936415,49.30615709695928 L1353.0748046936415,49.30615709695928 L1353.0748046936415,49.30615709695928 Q1353.0748046936415,44.686176515634024 1349.9278613991157,41.74010194203533 L1349.9278613991157,41.74010194203533 L1349.9278613991157,41.74010194203533 Q1346.7809181045898,38.79402736843662 1341.8931125620284,38.79402736843662 L1341.8931125620284,38.79402736843662 L1341.8931125620284,38.79402736843662 Q1337.0053070194672,38.79402736843662 1334.5279261280318,39.597502252145375 L1334.5279261280318,39.597502252145375 L1334.5279261280318,39.597502252145375 Q1332.0505452365965,40.4009771358541 1331.5818515544324,41.40532074049003 L1331.5818515544324,41.40532074049003 L1331.5818515544324,41.40532074049003 Q1331.1131578722695,42.40966434512594 1331.1131578722695,44.552264035015895 L1331.1131578722695,44.552264035015895 L1331.1131578722695,54.060050158902634 L1317.454084849221,53.12266279457577 L1317.454084849221,31.696665895676105 L1317.454084849221,31.696665895676105 Q1330.0418580273242,25.402779306624335 1343.2991936085184,25.402779306624335 L1343.2991936085184,25.402779306624335 L1343.2991936085184,25.402779306624335 Q1356.556529189713,25.402779306624335 1363.252153220619,31.897534616603302 L1363.252153220619,31.897534616603302 L1363.252153220619,31.897534616603302 Q1369.947777251525,38.39228992658226 1369.947777251525,49.6409382985046 L1369.947777251525,49.6409382985046 L1369.947777251525,49.6409382985046 Q1369.947777251525,60.88958667042691 1358.5652163989844,74.68257217409356 L1358.5652163989844,74.68257217409356 L1337.0053070194672,100.12594349153693 L1370.4834271739976,100.12594349153693 L1370.4834271739976,113.38327907273107 zM1414.272808336124,25.402779306624335 L1414.272808336124,25.402779306624335 L1414.272808336124,25.402779306624335 Q1444.6709414364375,25.402779306624335 1444.6709414364375,69.45998542998677 L1444.6709414364375,69.45998542998677 L1444.6709414364375,69.45998542998677 Q1444.6709414364375,92.89466953815827 1436.7701050799685,103.80853670853527 L1436.7701050799685,103.80853670853527 L1436.7701050799685,103.80853670853527 Q1428.8692687234989,114.7224038789123 1413.335420971797,114.7224038789123 L1413.335420971797,114.7224038789123 L1413.335420971797,114.7224038789123 Q1397.8015732200947,114.7224038789123 1390.1685618248619,103.94244918915336 L1390.1685618248619,103.94244918915336 L1390.1685618248619,103.94244918915336 Q1382.5355504296285,93.16249449939451 1382.5355504296285,70.3973727943136 L1382.5355504296285,70.3973727943136 L1382.5355504296285,70.3973727943136 Q1382.5355504296285,47.63225108923275 1390.9720367085704,36.51751519792852 L1390.9720367085704,36.51751519792852 L1390.9720367085704,36.51751519792852 Q1399.408522987512,25.402779306624335 1414.272808336124,25.402779306624335 zM1402.5554662820377,94.97031298773918 L1402.5554662820377,94.97031298773918 L1402.5554662820377,94.97031298773918 Q1406.3719719796547,101.86680573957247 1413.603245933033,101.86680573957247 L1413.603245933033,101.86680573957247 L1413.603245933033,101.86680573957247 Q1420.834519886412,101.86680573957247 1424.7849380646462,94.76944426681199 L1424.7849380646462,94.76944426681199 L1424.7849380646462,94.76944426681199 Q1428.735356242881,87.67208279405146 1428.735356242881,70.0625915927683 L1428.735356242881,70.0625915927683 L1428.735356242881,70.0625915927683 Q1428.735356242881,52.453100391485165 1424.9188505452646,45.48965139934278 L1424.9188505452646,45.48965139934278 L1424.9188505452646,45.48965139934278 Q1421.1023448476483,38.52620240720038 1413.7371584136513,38.52620240720038 L1413.7371584136513,38.52620240720038 L1413.7371584136513,38.52620240720038 Q1406.3719719796547,38.52620240720038 1402.5554662820377,45.9583450815062 L1402.5554662820377,45.9583450815062 L1402.5554662820377,45.9583450815062 Q1398.7389605844219,53.39048775581202 1398.7389605844219,70.73215399585891 L1398.7389605844219,70.73215399585891 L1398.7389605844219,70.73215399585891 Q1398.7389605844219,88.07382023590586 1402.5554662820377,94.97031298773918 z" fill="#db0577" id="svg_3"/></g></g></g></svg>